<svg width="56" height="52" viewBox="0 0 56 52" fill="none" xmlns="http://www.w3.org/2000/svg">
<path d="M39.6592 0.587891C43.6006 0.471867 47.4338 1.89302 50.3467 4.55078L50.6348 4.82031L50.6484 4.83398C56.8397 11.3768 56.8396 21.6173 50.6484 28.1602L50.6455 28.1641L39.4844 39.71L39.4834 39.7109L28.2412 51.292C28.1624 51.3732 28.0536 51.4188 27.9404 51.4189C27.8274 51.419 27.7195 51.3729 27.6406 51.292L16.3906 39.7461L16.3887 39.7451L5.22754 28.1982L5.22461 28.1953C-0.966737 21.6524 -0.96673 11.412 5.22461 4.86914L5.23828 4.85449L5.52637 4.58496C8.53633 1.83874 12.5291 0.412531 16.6084 0.638672L17.002 0.666016C21.0527 0.996115 24.808 2.93724 27.4219 6.0625L27.9326 6.56348L28.4414 6.03809C31.14 2.80541 35.0596 0.837626 39.2646 0.604492L39.6592 0.587891Z" fill="#024E49" stroke="#003025" stroke-width="0.837916" stroke-linecap="round" stroke-linejoin="round"/>
<mask id="path-2-outside-1_771_339" maskUnits="userSpaceOnUse" x="17.7852" y="13.6257" width="21" height="21" fill="black">
<rect fill="white" x="17.7852" y="13.6257" width="21" height="21"/>
<path d="M30.874 20.781H37.0293V26.7146H30.874V32.8708H24.9414V26.7146H18.7852V20.781H24.9414V14.6257H30.874V20.781Z"/>
</mask>
<path d="M30.874 20.781H37.0293V26.7146H30.874V32.8708H24.9414V26.7146H18.7852V20.781H24.9414V14.6257H30.874V20.781Z" fill="#D8FFF6"/>
<path d="M30.874 20.781H30.0361V21.6189H30.874V20.781ZM37.0293 20.781H37.8672V19.9431H37.0293V20.781ZM37.0293 26.7146V27.5525H37.8672V26.7146H37.0293ZM30.874 26.7146V25.8767H30.0361V26.7146H30.874ZM30.874 32.8708V33.7088H31.7119V32.8708H30.874ZM24.9414 32.8708H24.1035V33.7088H24.9414V32.8708ZM24.9414 26.7146H25.7793V25.8767H24.9414V26.7146ZM18.7852 26.7146H17.9472V27.5525H18.7852V26.7146ZM18.7852 20.781V19.9431H17.9472V20.781H18.7852ZM24.9414 20.781V21.6189H25.7793V20.781H24.9414ZM24.9414 14.6257V13.7878H24.1035V14.6257H24.9414ZM30.874 14.6257H31.7119V13.7878H30.874V14.6257ZM30.874 20.781V21.6189H37.0293V20.781V19.9431H30.874V20.781ZM37.0293 20.781H36.1914V26.7146H37.0293H37.8672V20.781H37.0293ZM37.0293 26.7146V25.8767H30.874V26.7146V27.5525H37.0293V26.7146ZM30.874 26.7146H30.0361V32.8708H30.874H31.7119V26.7146H30.874ZM30.874 32.8708V32.0329H24.9414V32.8708V33.7088H30.874V32.8708ZM24.9414 32.8708H25.7793V26.7146H24.9414H24.1035V32.8708H24.9414ZM24.9414 26.7146V25.8767H18.7852V26.7146V27.5525H24.9414V26.7146ZM18.7852 26.7146H19.6231V20.781H18.7852H17.9472V26.7146H18.7852ZM18.7852 20.781V21.6189H24.9414V20.781V19.9431H18.7852V20.781ZM24.9414 20.781H25.7793V14.6257H24.9414H24.1035V20.781H24.9414ZM24.9414 14.6257V15.4636H30.874V14.6257V13.7878H24.9414V14.6257ZM30.874 14.6257H30.0361V20.781H30.874H31.7119V14.6257H30.874Z" fill="#003025" mask="url(#path-2-outside-1_771_339)"/>
</svg>
