<svg width="68" height="51" viewBox="0 0 68 51" fill="none" xmlns="http://www.w3.org/2000/svg">
<rect x="17.8065" y="10.182" width="1.63109" height="0.704888" transform="rotate(40.2449 17.8065 10.182)" fill="#0D1B1A" stroke="#003025" stroke-width="0.2025"/>
<path d="M17.3887 7.94971C17.8117 7.91309 18.1879 8.22806 18.2266 8.65088L18.2295 8.74268L18.1836 10.5552C18.1729 10.976 17.8291 11.3119 17.4082 11.312H12.8164C12.3694 11.312 12.0142 10.935 12.041 10.4888L12.0625 10.1362L12.0752 10.0151C12.162 9.41475 12.6161 8.92627 13.2188 8.80225L17.2979 7.96338L17.3887 7.94971Z" fill="#27B7AC" stroke="#003025" stroke-width="0.2025"/>
<rect x="0.01187" y="-0.142695" width="1.63109" height="0.704888" transform="matrix(-0.763294 0.646051 0.64606 0.763287 49.5213 10.283)" fill="#0D1B1A" stroke="#003025" stroke-width="0.2025"/>
<path d="M49.8379 7.94946C49.4149 7.91284 49.0387 8.22781 49 8.65063L48.9971 8.74243L49.043 10.5549C49.0537 10.9757 49.3974 11.3116 49.8184 11.3118H54.4102C54.8571 11.3118 55.2123 10.9347 55.1855 10.4885L55.1641 10.136L55.1514 10.0149C55.0646 9.4145 54.6104 8.92603 54.0078 8.802L49.9287 7.96313L49.8379 7.94946Z" fill="#27B7AC" stroke="#003025" stroke-width="0.2025"/>
<path d="M23.376 27.1169V31.9177C23.3759 32.9055 22.5757 33.7067 21.5879 33.7068H18.7441C17.7563 33.7068 16.9551 32.9056 16.9551 31.9177V27.1169H23.376Z" fill="#012B28" stroke="#003025" stroke-width="0.2025"/>
<path d="M50.2705 27.1169V31.9177C50.2705 32.9055 49.4702 33.7067 48.4824 33.7068H45.6387C44.6508 33.7068 43.8497 32.9056 43.8496 31.9177V27.1169H50.2705Z" fill="#012B28" stroke="#003025" stroke-width="0.2025"/>
<path d="M51.8672 25.2681V28.3081C51.8672 28.7368 51.5195 29.0845 51.0908 29.0845H16.1377C15.7091 29.0844 15.3613 28.7368 15.3613 28.3081V25.2681H51.8672Z" fill="#1B7F77" stroke="#003025" stroke-width="0.2025"/>
<path d="M51.8672 25.2681V25.7866C51.8672 26.2153 51.5195 26.563 51.0908 26.563H16.1377C15.7091 26.5629 15.3613 26.2153 15.3613 25.7866V25.2681H51.8672Z" fill="#24A096" stroke="#003025" stroke-width="0.2025"/>
<mask id="path-9-outside-1_771_338" maskUnits="userSpaceOnUse" x="13.2852" y="0" width="40" height="26" fill="black">
<rect fill="white" x="13.2852" width="40" height="26"/>
<path d="M51.7588 14.7822C51.7767 14.8299 52.9414 17.9397 52.9414 20.0762C52.9412 22.2145 51.7746 25.4109 51.7588 25.4541H33.6553V25.4551H15.4678C15.4678 25.4551 14.2853 22.2291 14.2852 20.0762C14.2852 17.9408 15.4487 14.8329 15.4678 14.7822H51.7588ZM43.4268 1C45.8499 1 47.8145 2.96455 47.8145 5.3877V11.168L51.2598 14.2773H15.9648L19.4102 11.168H19.4121V5.3877C19.4121 2.96455 21.3767 1 23.7998 1H43.4268Z"/>
</mask>
<path d="M51.7588 14.7822C51.7767 14.8299 52.9414 17.9397 52.9414 20.0762C52.9412 22.2145 51.7746 25.4109 51.7588 25.4541H33.6553V25.4551H15.4678C15.4678 25.4551 14.2853 22.2291 14.2852 20.0762C14.2852 17.9408 15.4487 14.8329 15.4678 14.7822H51.7588ZM43.4268 1C45.8499 1 47.8145 2.96455 47.8145 5.3877V11.168L51.2598 14.2773H15.9648L19.4102 11.168H19.4121V5.3877C19.4121 2.96455 21.3767 1 23.7998 1H43.4268Z" fill="#25AEA4"/>
<path d="M51.7588 14.7822L51.9484 14.711L51.899 14.5797H51.7588V14.7822ZM52.9414 20.0762L53.1439 20.0762L53.1439 20.0762L52.9414 20.0762ZM51.7588 25.4541V25.6566H51.9003L51.949 25.5237L51.7588 25.4541ZM33.6553 25.4541V25.2516H33.4528V25.4541H33.6553ZM33.6553 25.4551V25.6576H33.8578V25.4551H33.6553ZM15.4678 25.4551L15.2776 25.5248L15.3263 25.6576H15.4678V25.4551ZM14.2852 20.0762L14.0827 20.0762L14.0827 20.0762L14.2852 20.0762ZM15.4678 14.7822V14.5797H15.3275L15.2782 14.711L15.4678 14.7822ZM47.8145 11.168H47.612V11.258L47.6788 11.3183L47.8145 11.168ZM51.2598 14.2773V14.4798H51.7864L51.3954 14.127L51.2598 14.2773ZM15.9648 14.2773L15.8292 14.127L15.4382 14.4798H15.9648V14.2773ZM19.4102 11.168V10.9655H19.3323L19.2745 11.0176L19.4102 11.168ZM19.4121 11.168V11.3705H19.6146V11.168H19.4121ZM51.7588 14.7822L51.5692 14.8534C51.5771 14.8743 51.8705 15.6577 52.1618 16.7004C52.4542 17.7474 52.7389 19.0369 52.7389 20.0762L52.9414 20.0762L53.1439 20.0762C53.1439 18.979 52.8462 17.6454 52.5518 16.5914C52.2562 15.5332 51.9584 14.7378 51.9484 14.711L51.7588 14.7822ZM52.9414 20.0762L52.7389 20.0762C52.7388 21.1168 52.4535 22.4286 52.1607 23.4973C51.8691 24.5616 51.5755 25.3657 51.5686 25.3845L51.7588 25.4541L51.949 25.5237C51.9579 25.4992 52.2556 24.6836 52.5513 23.6043C52.8458 22.5295 53.1438 21.1739 53.1439 20.0762L52.9414 20.0762ZM51.7588 25.4541V25.2516H33.6553V25.4541V25.6566H51.7588V25.4541ZM33.6553 25.4541H33.4528V25.4551H33.6553H33.8578V25.4541H33.6553ZM33.6553 25.4551V25.2526H15.4678V25.4551V25.6576H33.6553V25.4551ZM15.4678 25.4551C15.6579 25.3854 15.6579 25.3854 15.6579 25.3854C15.6579 25.3854 15.6579 25.3854 15.6579 25.3853C15.6579 25.3852 15.6578 25.3851 15.6577 25.385C15.6576 25.3846 15.6574 25.3841 15.6572 25.3834C15.6566 25.3819 15.6558 25.3797 15.6548 25.3767C15.6526 25.3708 15.6494 25.3618 15.6451 25.35C15.6366 25.3263 15.6241 25.2911 15.6081 25.2454C15.5761 25.154 15.5303 25.0207 15.4753 24.8539C15.3653 24.5203 15.2185 24.0531 15.0718 23.5193C14.777 22.4467 14.4877 21.1239 14.4877 20.0762L14.2852 20.0762L14.0827 20.0762C14.0827 21.1814 14.3848 22.5481 14.6813 23.6267C14.8302 24.1685 14.9791 24.6423 15.0907 24.9808C15.1466 25.1501 15.1931 25.2857 15.2258 25.3791C15.2422 25.4259 15.255 25.4621 15.2639 25.4867C15.2683 25.499 15.2717 25.5084 15.274 25.5148C15.2752 25.518 15.2761 25.5204 15.2767 25.5221C15.277 25.5229 15.2772 25.5236 15.2774 25.524C15.2775 25.5242 15.2775 25.5244 15.2776 25.5245C15.2776 25.5246 15.2776 25.5247 15.2776 25.5247C15.2776 25.5247 15.2776 25.5248 15.4678 25.4551ZM14.2852 20.0762L14.4877 20.0762C14.4877 19.0374 14.7721 17.7487 15.0644 16.7019C15.3555 15.6595 15.6489 14.8758 15.6573 14.8534L15.4678 14.7822L15.2782 14.711C15.2676 14.7393 14.9698 15.535 14.6743 16.593C14.3801 17.6467 14.0827 18.9796 14.0827 20.0762L14.2852 20.0762ZM15.4678 14.7822V14.9847H51.7588V14.7822V14.5797H15.4678V14.7822ZM43.4268 1V1.2025C45.7381 1.2025 47.612 3.07638 47.612 5.3877H47.8145H48.017C48.017 2.85271 45.9617 0.7975 43.4268 0.7975V1ZM47.8145 5.3877H47.612V11.168H47.8145H48.017V5.3877H47.8145ZM47.8145 11.168L47.6788 11.3183L51.1241 14.4277L51.2598 14.2773L51.3954 14.127L47.9501 11.0176L47.8145 11.168ZM51.2598 14.2773V14.0748H15.9648V14.2773V14.4798H51.2598V14.2773ZM15.9648 14.2773L16.1005 14.4277L19.5458 11.3183L19.4102 11.168L19.2745 11.0176L15.8292 14.127L15.9648 14.2773ZM19.4102 11.168V11.3705H19.4121V11.168V10.9655H19.4102V11.168ZM19.4121 11.168H19.6146V5.3877H19.4121H19.2096V11.168H19.4121ZM19.4121 5.3877H19.6146C19.6146 3.07638 21.4885 1.2025 23.7998 1.2025V1V0.7975C21.2648 0.7975 19.2096 2.85271 19.2096 5.3877H19.4121ZM23.7998 1V1.2025H43.4268V1V0.7975H23.7998V1Z" fill="#003025" mask="url(#path-9-outside-1_771_338)"/>
<mask id="path-11-outside-2_771_338" maskUnits="userSpaceOnUse" x="20.9316" y="1.68066" width="25" height="10" fill="black">
<rect fill="white" x="20.9316" y="1.68066" width="25" height="10"/>
<path d="M40.8213 2.68066C43.2444 2.68066 45.209 4.64521 45.209 7.06836V11.0137H21.9316V7.06836C21.9316 4.64521 23.8962 2.68066 26.3193 2.68066H40.8213Z"/>
</mask>
<path d="M40.8213 2.68066C43.2444 2.68066 45.209 4.64521 45.209 7.06836V11.0137H21.9316V7.06836C21.9316 4.64521 23.8962 2.68066 26.3193 2.68066H40.8213Z" fill="#E9FBFA"/>
<path d="M45.209 11.0137V11.2162H45.4115V11.0137H45.209ZM21.9316 11.0137H21.7291V11.2162H21.9316V11.0137ZM40.8213 2.68066V2.88316C43.1326 2.88316 45.0065 4.75705 45.0065 7.06836H45.209H45.4115C45.4115 4.53337 43.3563 2.47816 40.8213 2.47816V2.68066ZM45.209 7.06836H45.0065V11.0137H45.209H45.4115V7.06836H45.209ZM45.209 11.0137V10.8112H21.9316V11.0137V11.2162H45.209V11.0137ZM21.9316 11.0137H22.1341V7.06836H21.9316H21.7291V11.0137H21.9316ZM21.9316 7.06836H22.1341C22.1341 4.75705 24.008 2.88316 26.3193 2.88316V2.68066V2.47816C23.7843 2.47816 21.7291 4.53337 21.7291 7.06836H21.9316ZM26.3193 2.68066V2.88316H40.8213V2.68066V2.47816H26.3193V2.68066Z" fill="#003025" mask="url(#path-11-outside-2_771_338)"/>
<mask id="path-13-outside-3_771_338" maskUnits="userSpaceOnUse" x="24.7148" y="16.3867" width="18" height="7" fill="black">
<rect fill="white" x="24.7148" y="16.3867" width="18" height="7"/>
<path d="M39.701 17.5683C40.1681 17.2799 40.7708 17.3397 41.1717 17.7147C41.5458 18.0648 41.6606 18.612 41.4588 19.0829L40.1053 22.2392V22.329C40.1051 22.7017 39.8032 23.0038 39.4305 23.0038H27.8397C27.467 23.0038 27.164 22.7017 27.1639 22.329V22.2343L25.8133 19.0829C25.6114 18.6119 25.7262 18.0648 26.1004 17.7147C26.5013 17.3399 27.1031 17.28 27.5701 17.5683L29.8211 18.9569C29.827 18.9606 29.832 18.9658 29.8377 18.9696H37.4334C37.4391 18.9657 37.4441 18.9606 37.45 18.9569L39.701 17.5683Z"/>
</mask>
<path d="M39.701 17.5683C40.1681 17.2799 40.7708 17.3397 41.1717 17.7147C41.5458 18.0648 41.6606 18.612 41.4588 19.0829L40.1053 22.2392V22.329C40.1051 22.7017 39.8032 23.0038 39.4305 23.0038H27.8397C27.467 23.0038 27.164 22.7017 27.1639 22.329V22.2343L25.8133 19.0829C25.6114 18.6119 25.7262 18.0648 26.1004 17.7147C26.5013 17.3399 27.1031 17.28 27.5701 17.5683L29.8211 18.9569C29.827 18.9606 29.832 18.9658 29.8377 18.9696H37.4334C37.4391 18.9657 37.4441 18.9606 37.45 18.9569L39.701 17.5683Z" fill="#012B28"/>
<path d="M39.701 17.5683L39.8073 17.7406L39.8074 17.7406L39.701 17.5683ZM41.1717 17.7147L41.3101 17.5669L41.31 17.5669L41.1717 17.7147ZM41.4588 19.0829L41.6449 19.1627L41.6449 19.1627L41.4588 19.0829ZM40.1053 22.2392L39.9192 22.1593L39.9028 22.1976V22.2392H40.1053ZM40.1053 22.329L40.3078 22.3291V22.329H40.1053ZM27.1639 22.329L26.9614 22.329L26.9614 22.3291L27.1639 22.329ZM27.1639 22.2343H27.3664V22.1927L27.35 22.1545L27.1639 22.2343ZM25.8133 19.0829L25.9994 19.0031L25.9994 19.0031L25.8133 19.0829ZM26.1004 17.7147L25.9621 17.5668L25.9621 17.5669L26.1004 17.7147ZM27.5701 17.5683L27.4638 17.7406L27.4638 17.7406L27.5701 17.5683ZM29.8211 18.9569L29.9275 18.7846L29.9274 18.7846L29.8211 18.9569ZM29.8377 18.9696L29.7239 19.1371L29.7754 19.1721H29.8377V18.9696ZM37.4334 18.9696V19.1721H37.4958L37.5473 19.1371L37.4334 18.9696ZM37.45 18.9569L37.3437 18.7846L37.3436 18.7846L37.45 18.9569ZM39.701 17.5683L39.8074 17.7406C40.1969 17.5001 40.6992 17.5501 41.0334 17.8626L41.1717 17.7147L41.31 17.5669C40.8423 17.1293 40.1394 17.0596 39.5946 17.3959L39.701 17.5683ZM41.1717 17.7147L41.0333 17.8626C41.3452 18.1544 41.4409 18.6106 41.2727 19.0031L41.4588 19.0829L41.6449 19.1627C41.8803 18.6134 41.7464 17.9752 41.3101 17.5669L41.1717 17.7147ZM41.4588 19.0829L41.2727 19.0031L39.9192 22.1593L40.1053 22.2392L40.2914 22.319L41.6449 19.1627L41.4588 19.0829ZM40.1053 22.2392H39.9028V22.329H40.1053H40.3078V22.2392H40.1053ZM40.1053 22.329L39.9028 22.3289C39.9027 22.5899 39.6913 22.8013 39.4305 22.8013V23.0038V23.2063C39.9151 23.2063 40.3076 22.8134 40.3078 22.3291L40.1053 22.329ZM39.4305 23.0038V22.8013H27.8397V23.0038V23.2063H39.4305V23.0038ZM27.8397 23.0038V22.8013C27.5785 22.8013 27.3665 22.5895 27.3664 22.3289L27.1639 22.329L26.9614 22.3291C26.9616 22.8138 27.3554 23.2063 27.8397 23.2063V23.0038ZM27.1639 22.329H27.3664V22.2343H27.1639H26.9614V22.329H27.1639ZM27.1639 22.2343L27.35 22.1545L25.9994 19.0031L25.8133 19.0829L25.6272 19.1627L26.9778 22.314L27.1639 22.2343ZM25.8133 19.0829L25.9994 19.0031C25.8312 18.6105 25.9268 18.1544 26.2387 17.8626L26.1004 17.7147L25.9621 17.5669C25.5256 17.9752 25.3917 18.6133 25.6272 19.1627L25.8133 19.0829ZM26.1004 17.7147L26.2387 17.8626C26.5728 17.5502 27.0744 17.5003 27.4638 17.7406L27.5701 17.5683L27.6765 17.3959C27.1317 17.0598 26.4297 17.1295 25.9621 17.5668L26.1004 17.7147ZM27.5701 17.5683L27.4638 17.7406L29.7148 19.1293L29.8211 18.9569L29.9274 18.7846L27.6765 17.3959L27.5701 17.5683ZM29.8211 18.9569L29.7147 19.1292C29.7089 19.1257 29.7047 19.1225 29.7026 19.1209C29.7006 19.1194 29.6994 19.1183 29.7004 19.1192C29.7006 19.1194 29.7041 19.1223 29.7073 19.1248C29.7109 19.1277 29.7167 19.1322 29.7239 19.1371L29.8377 18.9696L29.9515 18.8021C29.9559 18.8051 29.9589 18.8075 29.9598 18.8082C29.9603 18.8086 29.9611 18.8092 29.9586 18.8072C29.9569 18.8058 29.953 18.8025 29.9482 18.7989C29.9433 18.7951 29.9362 18.79 29.9275 18.7846L29.8211 18.9569ZM29.8377 18.9696V19.1721H37.4334V18.9696V18.7671H29.8377V18.9696ZM37.4334 18.9696L37.5473 19.1371C37.5545 19.1322 37.5602 19.1277 37.5639 19.1248C37.5658 19.1233 37.5674 19.122 37.5685 19.1211C37.569 19.1206 37.5695 19.1202 37.5699 19.1199C37.5703 19.1196 37.5705 19.1194 37.5707 19.1192C37.5718 19.1183 37.5705 19.1194 37.5685 19.1209C37.5663 19.1226 37.5621 19.1257 37.5564 19.1292L37.45 18.9569L37.3436 18.7846C37.3349 18.79 37.3279 18.7951 37.3229 18.7989C37.3181 18.8025 37.3142 18.8058 37.3125 18.8072C37.31 18.8093 37.3108 18.8086 37.3113 18.8082C37.3122 18.8075 37.3152 18.8051 37.3195 18.8022L37.4334 18.9696ZM37.45 18.9569L37.5563 19.1293L39.8073 17.7406L39.701 17.5683L39.5947 17.3959L37.3437 18.7846L37.45 18.9569Z" fill="#003025" mask="url(#path-13-outside-3_771_338)"/>
<path d="M51.5996 17.3809C51.7334 17.3618 51.8613 17.4535 51.8867 17.5859L51.8906 17.6562C51.7685 19.1689 51.0015 20.6139 49.5859 21.2217C49.0546 21.4498 48.458 21.6562 47.8447 21.7715L47.5811 21.8145C46.7711 21.9302 45.7671 21.895 44.8828 21.8164C43.5147 21.6949 42.4942 20.5801 42.3389 19.2266C42.3104 18.9779 42.5123 18.764 42.7617 18.7764L43.6016 18.8115C44.6201 18.8461 46.086 18.8659 47.1787 18.7568L47.4639 18.7207C48.1468 18.6174 48.932 18.387 49.6465 18.1396C50.4613 17.8576 51.1774 17.5558 51.5322 17.4004L51.5996 17.3809Z" fill="#E9FBFA" stroke="#003025" stroke-width="0.2025"/>
<path d="M15.6719 17.3809C15.5381 17.3618 15.4102 17.4535 15.3848 17.5859L15.3809 17.6562C15.503 19.1689 16.27 20.6139 17.6855 21.2217C18.2169 21.4498 18.8135 21.6562 19.4268 21.7715L19.6904 21.8145C20.5003 21.9302 21.5044 21.895 22.3887 21.8164C23.7568 21.6949 24.7773 20.5801 24.9326 19.2266C24.9611 18.9779 24.7592 18.764 24.5098 18.7764L23.6699 18.8115C22.6514 18.8461 21.1854 18.8659 20.0928 18.7568L19.8076 18.7207C19.1247 18.6174 18.3395 18.387 17.625 18.1396C16.8102 17.8576 16.0941 17.5558 15.7393 17.4004L15.6719 17.3809Z" fill="#E9FBFA" stroke="#003025" stroke-width="0.2025"/>
<mask id="path-17-inside-4_771_338" fill="white">
<path d="M67.2275 39.1819H50.1367C43.8437 39.1819 38.7422 43.9921 38.7422 49.926V51.0002H28.4863V49.926C28.4863 43.9921 23.3848 39.1819 17.0918 39.1819H0V35.9583H31.8242L33.6143 38.1067L35.4043 35.9583H67.2275V39.1819Z"/>
</mask>
<path d="M67.2275 39.1819H50.1367C43.8437 39.1819 38.7422 43.9921 38.7422 49.926V51.0002H28.4863V49.926C28.4863 43.9921 23.3848 39.1819 17.0918 39.1819H0V35.9583H31.8242L33.6143 38.1067L35.4043 35.9583H67.2275V39.1819Z" fill="#024E49"/>
<path d="M67.2275 39.1819V39.7219H67.7675V39.1819H67.2275ZM50.1367 39.1819L50.1367 38.6419L50.1367 38.6419L50.1367 39.1819ZM38.7422 51.0002V51.5402H39.2822V51.0002H38.7422ZM28.4863 51.0002H27.9463V51.5402H28.4863V51.0002ZM17.0918 39.1819L17.0918 38.6419H17.0918V39.1819ZM0 39.1819H-0.54V39.7219H0V39.1819ZM0 35.9583V35.4183H-0.54V35.9583H0ZM31.8242 35.9583L32.2391 35.6126L32.0772 35.4183H31.8242V35.9583ZM33.6143 38.1067L33.1994 38.4524L33.6143 38.9503L34.0291 38.4524L33.6143 38.1067ZM35.4043 35.9583V35.4183H35.1513L34.9894 35.6126L35.4043 35.9583ZM67.2275 35.9583H67.7675V35.4183H67.2275V35.9583ZM67.2275 39.1819V38.6419H50.1367V39.1819V39.7219H67.2275V39.1819ZM50.1367 39.1819L50.1367 38.6419C43.5758 38.6419 38.2022 43.6644 38.2022 49.926H38.7422H39.2822C39.2822 44.3198 44.1116 39.7219 50.1367 39.7219L50.1367 39.1819ZM38.7422 49.926H38.2022V51.0002H38.7422H39.2822V49.926H38.7422ZM38.7422 51.0002V50.4602H28.4863V51.0002V51.5402H38.7422V51.0002ZM28.4863 51.0002H29.0263V49.926H28.4863H27.9463V51.0002H28.4863ZM28.4863 49.926H29.0263C29.0263 43.6644 23.6527 38.6419 17.0918 38.6419L17.0918 39.1819L17.0918 39.7219C23.1169 39.7219 27.9463 44.3198 27.9463 49.926H28.4863ZM17.0918 39.1819V38.6419H0V39.1819V39.7219H17.0918V39.1819ZM0 39.1819H0.54V35.9583H0H-0.54V39.1819H0ZM0 35.9583V36.4983H31.8242V35.9583V35.4183H0V35.9583ZM31.8242 35.9583L31.4093 36.3039L33.1994 38.4524L33.6143 38.1067L34.0291 37.761L32.2391 35.6126L31.8242 35.9583ZM33.6143 38.1067L34.0291 38.4524L35.8192 36.3039L35.4043 35.9583L34.9894 35.6126L33.1994 37.761L33.6143 38.1067ZM35.4043 35.9583V36.4983H67.2275V35.9583V35.4183H35.4043V35.9583ZM67.2275 35.9583H66.6875V39.1819H67.2275H67.7675V35.9583H67.2275Z" fill="#003025" mask="url(#path-17-inside-4_771_338)"/>
<mask id="path-19-inside-5_771_338" fill="white">
<path d="M64.4258 36.5459H47.9951C41.8689 36.5459 36.9024 40.48 36.9023 45.332V46.1924H30.2979V45.3145C30.2978 40.4652 25.369 36.5343 19.2891 36.5342H2.77539V31.168H27.8125L33.6289 38.1797L39.4443 31.168H64.4258V36.5459Z"/>
</mask>
<path d="M64.4258 36.5459H47.9951C41.8689 36.5459 36.9024 40.48 36.9023 45.332V46.1924H30.2979V45.3145C30.2978 40.4652 25.369 36.5343 19.2891 36.5342H2.77539V31.168H27.8125L33.6289 38.1797L39.4443 31.168H64.4258V36.5459Z" fill="#C0D4D2"/>
<path d="M64.4258 36.5459V37.2209H65.1008V36.5459H64.4258ZM36.9023 45.332L36.2273 45.332V45.332H36.9023ZM36.9023 46.1924V46.8674H37.5773V46.1924H36.9023ZM30.2979 46.1924H29.6229V46.8674H30.2979V46.1924ZM30.2979 45.3145L30.9729 45.3145L30.9729 45.3144L30.2979 45.3145ZM19.2891 36.5342L19.2891 35.8592H19.2891V36.5342ZM2.77539 36.5342H2.10039V37.2092H2.77539V36.5342ZM2.77539 31.168V30.493H2.10039V31.168H2.77539ZM27.8125 31.168L28.332 30.737L28.1296 30.493H27.8125V31.168ZM33.6289 38.1797L33.1094 38.6106L33.6289 39.237L34.1485 38.6106L33.6289 38.1797ZM39.4443 31.168V30.493H39.1272L38.9248 30.7371L39.4443 31.168ZM64.4258 31.168H65.1008V30.493H64.4258V31.168ZM64.4258 36.5459V35.8709H47.9951V36.5459V37.2209H64.4258V36.5459ZM47.9951 36.5459V35.8709C41.6513 35.8709 36.2274 39.969 36.2273 45.332L36.9023 45.332L37.5773 45.332C37.5774 40.991 42.0865 37.2209 47.9951 37.2209V36.5459ZM36.9023 45.332H36.2273V46.1924H36.9023H37.5773V45.332H36.9023ZM36.9023 46.1924V45.5174H30.2979V46.1924V46.8674H36.9023V46.1924ZM30.2979 46.1924H30.9729V45.3145H30.2979H29.6229V46.1924H30.2979ZM30.2979 45.3145L30.9729 45.3144C30.9728 39.958 25.5914 35.8593 19.2891 35.8592L19.2891 36.5342L19.2891 37.2092C25.1467 37.2093 29.6228 40.9724 29.6229 45.3145L30.2979 45.3145ZM19.2891 36.5342V35.8592H2.77539V36.5342V37.2092H19.2891V36.5342ZM2.77539 36.5342H3.45039V31.168H2.77539H2.10039V36.5342H2.77539ZM2.77539 31.168V31.843H27.8125V31.168V30.493H2.77539V31.168ZM27.8125 31.168L27.293 31.5989L33.1094 38.6106L33.6289 38.1797L34.1484 37.7487L28.332 30.737L27.8125 31.168ZM33.6289 38.1797L34.1485 38.6106L39.9639 31.5989L39.4443 31.168L38.9248 30.7371L33.1094 37.7488L33.6289 38.1797ZM39.4443 31.168V31.843H64.4258V31.168V30.493H39.4443V31.168ZM64.4258 31.168H63.7508V36.5459H64.4258H65.1008V31.168H64.4258Z" fill="#1B7F77" mask="url(#path-19-inside-5_771_338)"/>
</svg>
