<svg width="49" height="51" viewBox="0 0 49 51" fill="none" xmlns="http://www.w3.org/2000/svg">
<path d="M22.697 43.7474C16.0511 40.2179 13.3896 32.0145 16.7602 25.2356C20.1313 18.4565 28.28 15.6259 35.1054 18.7952L22.697 43.7474ZM35.7843 19.133C42.4312 22.6622 45.093 30.868 41.7218 37.6475C38.3505 44.4264 30.2026 47.2542 23.3772 44.0848L35.7843 19.133Z" fill="#F1F1F1" stroke="#8A8A8A" stroke-width="0.758901"/>
<path d="M12.833 47.1963C19.3686 47.1963 24.6677 41.8978 24.668 35.3623V23.5283H0.999023V35.3623C0.999277 41.8977 6.29763 47.196 12.833 47.1963Z" fill="#F25F24" stroke="#003025" stroke-width="0.758901"/>
<path d="M12.8154 0.620117C19.5501 0.620325 25.0098 6.08073 25.0098 12.8154V25.7646H0.620117V12.8154C0.620117 6.0806 6.0806 0.620117 12.8154 0.620117Z" fill="#00A89E" stroke="#003025" stroke-width="0.758901"/>
</svg>
