<svg width="45" height="52" viewBox="0 0 45 52" fill="none" xmlns="http://www.w3.org/2000/svg">
<path d="M13.875 32.4333V39.2332C13.9636 41.8122 15.1377 44.2773 17.1865 46.1199L17.5957 46.4705C19.6832 48.17 22.4104 49.1217 25.2529 49.1218L25.8203 49.1101C28.6453 48.984 31.3204 47.9184 33.3203 46.1199L33.6943 45.7673C35.5014 43.9794 36.5381 41.6782 36.6318 39.2761V32.9929H39.0615V39.6218H39.0391C38.8539 42.5825 37.5042 45.3856 35.2344 47.5271L35.0029 47.741C32.4919 49.999 29.1215 51.2932 25.5947 51.3718L25.2529 51.3757C21.7168 51.3756 18.3146 50.1515 15.749 47.9558L15.5039 47.741C12.9232 45.4202 11.4595 42.2672 11.4453 38.9675V38.9656L11.4443 32.8093V32.4333H13.875Z" fill="#DBFFF8" stroke="#003025" stroke-width="0.751308"/>
<path d="M12.4766 32.8093V38.9666H12.4775C12.4913 42.1534 13.9043 45.2073 16.4111 47.4617C18.8533 49.6579 22.1395 50.9168 25.584 50.9919C25.4754 50.9943 25.3667 50.9998 25.2578 50.9998C21.6952 50.9998 18.278 49.7271 15.7588 47.4617C13.252 45.2073 11.839 42.1534 11.8252 38.9666H11.8242V32.8093H12.4766ZM37.6641 33.3689V39.2458H37.667C37.5748 41.933 36.3478 44.4924 34.2275 46.3992C32.0216 48.383 29.0299 49.4978 25.9102 49.4978C25.8013 49.4978 25.6925 49.4927 25.584 49.49C28.5854 49.4151 31.4462 48.3137 33.5752 46.3992C35.6954 44.4924 36.9225 41.933 37.0146 39.2458H37.0117V33.3689H37.6641Z" fill="#09493E"/>
<mask id="path-3-outside-1_771_336" maskUnits="userSpaceOnUse" x="0.0429688" y="0.633301" width="25" height="34" fill="black">
<rect fill="white" x="0.0429688" y="0.633301" width="25" height="34"/>
<path d="M6.8752 1.69947C7.34169 1.60619 8.41501 1.55959 8.96114 1.92506L8.5627 3.41138C8.02108 3.26626 8.46022 3.32807 7.90157 3.41138C7.34305 3.49467 6.97091 3.5118 6.40938 3.70533C5.64583 3.9685 5.14398 4.31247 4.61348 4.7317C3.96442 5.24478 3.6231 6.07583 3.47091 6.64381C3.31877 7.21172 3.29909 7.91687 3.28438 8.64869C3.26232 9.74663 3.2991 10.6078 3.37716 11.4006C3.45523 12.1935 5.14934 24.6473 5.28926 25.1604C5.42466 25.6578 5.84514 30.0344 12.2424 30.9544V30.9436C20.3985 30.7105 19.8389 25.7529 19.9787 25.2395C20.1186 24.7265 21.8122 12.2774 21.8908 11.4807C21.9689 10.6879 22.0066 9.82677 21.9846 8.72877C21.9699 7.9967 21.9503 7.29097 21.7981 6.72291C21.6459 6.15491 21.3045 5.32386 20.6555 4.8108C20.125 4.39158 19.6231 4.0476 18.8596 3.78443C18.2981 3.59091 17.9259 3.57376 17.3674 3.49049C16.8087 3.40718 17.2479 3.34536 16.7063 3.49049L16.3078 2.00416C16.8539 1.63869 17.9273 1.68529 18.3938 1.77857C18.8604 1.87188 19.8238 2.07105 20.6555 2.43189C21.6823 2.87746 22.1905 3.44972 22.8713 4.25123C23.5303 5.02726 23.7885 5.67608 24.0598 6.72291C24.2387 7.41332 24.212 7.7392 24.2229 8.72877C24.2349 9.82699 24.1997 11.2008 24.0598 12.2268C23.9197 13.2541 22.2409 25.0049 22.1008 25.9856C21.9646 26.9389 20.8842 32.6753 12.9152 33.1536V33.1819C12.8 33.1798 12.6861 33.176 12.5734 33.1711C12.4643 33.1755 12.354 33.1804 12.2424 33.1829V33.1526C5.23708 32.6728 3.30293 26.8564 3.16719 25.9065C3.02731 24.9272 1.34956 13.1771 1.20919 12.1477C1.0693 11.1218 1.03309 9.74784 1.04512 8.64966C1.05598 7.66015 1.03027 7.33415 1.20919 6.64381C1.48056 5.59675 1.73836 4.94738 2.39766 4.17115C3.0784 3.3697 3.58667 2.79834 4.61348 2.35279C5.4452 1.99194 6.4086 1.79278 6.8752 1.69947Z"/>
</mask>
<path d="M6.8752 1.69947C7.34169 1.60619 8.41501 1.55959 8.96114 1.92506L8.5627 3.41138C8.02108 3.26626 8.46022 3.32807 7.90157 3.41138C7.34305 3.49467 6.97091 3.5118 6.40938 3.70533C5.64583 3.9685 5.14398 4.31247 4.61348 4.7317C3.96442 5.24478 3.6231 6.07583 3.47091 6.64381C3.31877 7.21172 3.29909 7.91687 3.28438 8.64869C3.26232 9.74663 3.2991 10.6078 3.37716 11.4006C3.45523 12.1935 5.14934 24.6473 5.28926 25.1604C5.42466 25.6578 5.84514 30.0344 12.2424 30.9544V30.9436C20.3985 30.7105 19.8389 25.7529 19.9787 25.2395C20.1186 24.7265 21.8122 12.2774 21.8908 11.4807C21.9689 10.6879 22.0066 9.82677 21.9846 8.72877C21.9699 7.9967 21.9503 7.29097 21.7981 6.72291C21.6459 6.15491 21.3045 5.32386 20.6555 4.8108C20.125 4.39158 19.6231 4.0476 18.8596 3.78443C18.2981 3.59091 17.9259 3.57376 17.3674 3.49049C16.8087 3.40718 17.2479 3.34536 16.7063 3.49049L16.3078 2.00416C16.8539 1.63869 17.9273 1.68529 18.3938 1.77857C18.8604 1.87188 19.8238 2.07105 20.6555 2.43189C21.6823 2.87746 22.1905 3.44972 22.8713 4.25123C23.5303 5.02726 23.7885 5.67608 24.0598 6.72291C24.2387 7.41332 24.212 7.7392 24.2229 8.72877C24.2349 9.82699 24.1997 11.2008 24.0598 12.2268C23.9197 13.2541 22.2409 25.0049 22.1008 25.9856C21.9646 26.9389 20.8842 32.6753 12.9152 33.1536V33.1819C12.8 33.1798 12.6861 33.176 12.5734 33.1711C12.4643 33.1755 12.354 33.1804 12.2424 33.1829V33.1526C5.23708 32.6728 3.30293 26.8564 3.16719 25.9065C3.02731 24.9272 1.34956 13.1771 1.20919 12.1477C1.0693 11.1218 1.03309 9.74784 1.04512 8.64966C1.05598 7.66015 1.03027 7.33415 1.20919 6.64381C1.48056 5.59675 1.73836 4.94738 2.39766 4.17115C3.0784 3.3697 3.58667 2.79834 4.61348 2.35279C5.4452 1.99194 6.4086 1.79278 6.8752 1.69947Z" fill="#D8FFF6"/>
<path d="M6.8752 1.69947L6.72788 0.962746L6.72788 0.962747L6.8752 1.69947ZM8.96114 1.92506L9.68683 2.11959L9.82614 1.59989L9.37898 1.30066L8.96114 1.92506ZM8.5627 3.41138L8.36825 4.13709L9.09388 4.33152L9.28839 3.60592L8.5627 3.41138ZM7.90157 3.41138L8.01238 4.15448L8.01239 4.15447L7.90157 3.41138ZM6.40938 3.70533L6.16458 2.99502L6.16456 2.99503L6.40938 3.70533ZM4.61348 4.7317L4.14766 4.14223L4.14757 4.1423L4.61348 4.7317ZM3.47091 6.64381L2.7452 6.44935L2.74519 6.44939L3.47091 6.64381ZM3.28438 8.64869L2.53323 8.63359L2.53323 8.63359L3.28438 8.64869ZM3.37716 11.4006L2.62946 11.4743L2.62946 11.4743L3.37716 11.4006ZM5.28926 25.1604L6.01419 24.9631L6.0141 24.9627L5.28926 25.1604ZM12.2424 30.9544L12.1354 31.698L12.9937 31.8214V30.9544H12.2424ZM12.2424 30.9436L12.2209 30.1926L11.4911 30.2135V30.9436H12.2424ZM19.9787 25.2395L19.2539 25.0418L19.2538 25.042L19.9787 25.2395ZM21.8908 11.4807L22.6385 11.5545L22.6385 11.5544L21.8908 11.4807ZM21.9846 8.72877L22.7357 8.71368L22.7357 8.71368L21.9846 8.72877ZM21.7981 6.72291L22.5238 6.52845L22.5238 6.52845L21.7981 6.72291ZM20.6555 4.8108L21.1214 4.22139L21.1213 4.22133L20.6555 4.8108ZM18.8596 3.78443L19.1044 3.07413L19.1044 3.07412L18.8596 3.78443ZM17.3674 3.49049L17.2566 4.23358L17.2566 4.23358L17.3674 3.49049ZM16.7063 3.49049L15.9806 3.68502L16.1751 4.41063L16.9007 4.21619L16.7063 3.49049ZM16.3078 2.00416L15.89 1.37976L15.4428 1.679L15.5821 2.19869L16.3078 2.00416ZM18.3938 1.77857L18.5411 1.04185L18.5411 1.04185L18.3938 1.77857ZM20.6555 2.43189L20.9545 1.74267L20.9545 1.74266L20.6555 2.43189ZM22.8713 4.25123L23.444 3.7649L23.4439 3.76486L22.8713 4.25123ZM24.0598 6.72291L24.7871 6.53442L24.7871 6.53441L24.0598 6.72291ZM24.2229 8.72877L24.9741 8.72053L24.9741 8.72053L24.2229 8.72877ZM24.0598 12.2268L24.8042 12.3283L24.8042 12.3283L24.0598 12.2268ZM22.1008 25.9856L22.8445 26.0918L22.1008 25.9856ZM12.9152 33.1536L12.8702 32.4036L12.1639 32.446V33.1536H12.9152ZM12.9152 33.1819L12.9013 33.9331L13.6665 33.9472V33.1819H12.9152ZM12.5734 33.1711L12.606 32.4205L12.5747 32.4192L12.5433 32.4204L12.5734 33.1711ZM12.2424 33.1829H11.4911V33.9507L12.2587 33.934L12.2424 33.1829ZM12.2424 33.1526H12.9937V32.451L12.2937 32.403L12.2424 33.1526ZM3.16719 25.9065L2.42344 26.0127L2.42344 26.0128L3.16719 25.9065ZM1.20919 12.1477L0.464766 12.2492L0.464768 12.2492L1.20919 12.1477ZM1.04512 8.64966L0.293861 8.64142L0.293861 8.64143L1.04512 8.64966ZM1.20919 6.64381L0.481908 6.45531L0.481906 6.45532L1.20919 6.64381ZM2.39766 4.17115L1.82504 3.68477L1.82503 3.68477L2.39766 4.17115ZM4.61348 2.35279L4.31445 1.66356L4.31442 1.66357L4.61348 2.35279ZM6.8752 1.69947L7.02252 2.43619C7.19028 2.40265 7.51132 2.37139 7.84581 2.39034C8.20336 2.4106 8.44151 2.48134 8.5433 2.54945L8.96114 1.92506L9.37898 1.30066C8.93464 1.00331 8.36307 0.914619 7.9308 0.890129C7.47548 0.864332 7.02661 0.903012 6.72788 0.962746L6.8752 1.69947ZM8.96114 1.92506L8.23545 1.73052L7.83702 3.21685L8.5627 3.41138L9.28839 3.60592L9.68683 2.11959L8.96114 1.92506ZM8.5627 3.41138L8.75715 2.68567C8.6355 2.65308 8.57259 2.6332 8.52827 2.6197C8.51695 2.61626 8.46125 2.59859 8.40291 2.58751C8.3166 2.57113 8.18704 2.56016 8.03699 2.60195C7.97907 2.61807 7.93518 2.63757 7.91855 2.64508C7.91396 2.64715 7.88016 2.66291 7.89705 2.65507C7.90625 2.65079 7.918 2.646 7.92738 2.64288C7.93753 2.63951 7.90653 2.65103 7.79075 2.66829L7.90157 3.41138L8.01239 4.15447C8.17593 4.13008 8.29953 4.10264 8.40139 4.06878C8.45662 4.05042 8.4985 4.0325 8.52984 4.01794C8.53572 4.01522 8.54136 4.01254 8.54237 4.01206C8.54491 4.01086 8.54143 4.01253 8.53651 4.01474C8.52791 4.01862 8.49103 4.0353 8.44005 4.04949C8.38219 4.06561 8.31974 4.07502 8.25477 4.0755C8.19508 4.07593 8.14835 4.06864 8.12269 4.06377C8.09816 4.05911 8.08146 4.05438 8.08054 4.05412C8.0787 4.05361 8.08024 4.05401 8.09065 4.05718C8.13378 4.07031 8.21909 4.09713 8.36825 4.13709L8.5627 3.41138ZM7.90157 3.41138L7.79076 2.66829C7.29089 2.74283 6.81187 2.77194 6.16458 2.99502L6.40938 3.70533L6.65419 4.41564C7.12995 4.25167 7.39521 4.2465 8.01238 4.15448L7.90157 3.41138ZM6.40938 3.70533L6.16456 2.99503C5.28908 3.29678 4.7114 3.69674 4.14766 4.14223L4.61348 4.7317L5.0793 5.32117C5.57657 4.92821 6.00257 4.64023 6.6542 4.41563L6.40938 3.70533ZM4.61348 4.7317L4.14757 4.1423C3.30981 4.80455 2.91274 5.82409 2.7452 6.44935L3.47091 6.64381L4.19661 6.83826C4.33346 6.32756 4.61904 5.68501 5.0794 5.32109L4.61348 4.7317ZM3.47091 6.64381L2.74519 6.44939C2.56495 7.12218 2.54748 7.92424 2.53323 8.63359L3.28438 8.64869L4.03554 8.66379C4.0507 7.9095 4.07258 7.30125 4.19662 6.83822L3.47091 6.64381ZM3.28438 8.64869L2.53323 8.63359C2.51063 9.75787 2.5482 10.6489 2.62946 11.4743L3.37716 11.4006L4.12485 11.327C4.05 10.5668 4.014 9.73539 4.03554 8.66378L3.28438 8.64869ZM3.37716 11.4006L2.62946 11.4743C2.67036 11.8896 3.11657 15.223 3.56572 18.4879C3.7912 20.1268 4.01874 21.7581 4.19876 23.0122C4.28873 23.6391 4.36708 24.1734 4.42747 24.568C4.48285 24.9299 4.53235 25.2405 4.56443 25.3581L5.28926 25.1604L6.0141 24.9627C6.01739 24.9748 6.0088 24.9381 5.98649 24.8054C5.96728 24.6912 5.94251 24.5349 5.91279 24.3407C5.85345 23.953 5.77588 23.424 5.68613 22.7987C5.50671 21.5488 5.27962 19.9208 5.05432 18.2831C4.60191 14.9945 4.16203 11.7046 4.12485 11.327L3.37716 11.4006ZM5.28926 25.1604L4.56434 25.3578C4.56341 25.3543 4.56466 25.3586 4.5687 25.3773C4.57247 25.3947 4.57698 25.4166 4.58304 25.4466C4.59471 25.5041 4.61057 25.5835 4.63053 25.6748C4.67091 25.8596 4.72922 26.0991 4.81769 26.3753C4.99456 26.9276 5.29172 27.6259 5.80936 28.3399C6.86057 29.7899 8.75356 31.2117 12.1354 31.698L12.2424 30.9544L12.3493 30.2107C9.33397 29.7771 7.81809 28.5506 7.0259 27.4579C6.20841 26.3303 6.1081 25.308 6.01419 24.9631L5.28926 25.1604ZM12.2424 30.9544H12.9937V30.9436H12.2424H11.4911V30.9544H12.2424ZM12.2424 30.9436L12.2639 31.6946C16.4982 31.5736 18.6656 30.2121 19.7399 28.6162C20.2637 27.8381 20.491 27.0551 20.5979 26.4441C20.6514 26.1389 20.6751 25.8745 20.6898 25.6792C20.6978 25.5733 20.7017 25.5106 20.7069 25.4502C20.7131 25.3784 20.7153 25.3942 20.7036 25.437L19.9787 25.2395L19.2538 25.042C19.2247 25.149 19.2148 25.2637 19.2099 25.321C19.2039 25.3897 19.1975 25.4864 19.1915 25.5658C19.1783 25.7407 19.159 25.9497 19.1178 26.185C19.0355 26.6553 18.8667 27.2225 18.4934 27.7771C17.7735 28.8466 16.1427 30.0805 12.2209 30.1926L12.2424 30.9436ZM19.9787 25.2395L20.7036 25.4372C20.7356 25.3196 20.7851 25.0091 20.8405 24.6474C20.9009 24.2529 20.9792 23.7187 21.0691 23.0921C21.2491 21.8383 21.4766 20.2075 21.7021 18.5689C22.1512 15.3046 22.5974 11.9716 22.6385 11.5545L21.8908 11.4807L21.1431 11.4069C21.1057 11.7865 20.6658 15.0764 20.2135 18.3641C19.9882 20.0015 19.7611 21.629 19.5818 22.8786C19.492 23.5036 19.4145 24.0324 19.3552 24.42C19.3255 24.6141 19.3007 24.7704 19.2815 24.8846C19.2592 25.0172 19.2506 25.0539 19.2539 25.0418L19.9787 25.2395ZM21.8908 11.4807L22.6385 11.5544C22.7198 10.7294 22.7583 9.83856 22.7357 8.71368L21.9846 8.72877L21.2334 8.74385C21.2549 9.81497 21.2181 10.6463 21.1431 11.4071L21.8908 11.4807ZM21.9846 8.72877L22.7357 8.71368C22.7215 8.0042 22.7041 7.20146 22.5238 6.52845L21.7981 6.72291L21.0723 6.91736C21.1964 7.38049 21.2183 7.9892 21.2334 8.74386L21.9846 8.72877ZM21.7981 6.72291L22.5238 6.52845C22.3562 5.90319 21.9592 4.88363 21.1214 4.22139L20.6555 4.8108L20.1896 5.4002C20.6499 5.76409 20.9355 6.40663 21.0723 6.91737L21.7981 6.72291ZM20.6555 4.8108L21.1213 4.22133C20.5576 3.77584 19.9799 3.37587 19.1044 3.07413L18.8596 3.78443L18.6148 4.49473C19.2664 4.71932 19.6924 5.00731 20.1897 5.40027L20.6555 4.8108ZM18.8596 3.78443L19.1044 3.07412C18.4571 2.85104 17.978 2.82192 17.4782 2.74739L17.3674 3.49049L17.2566 4.23358C17.8737 4.32559 18.139 4.33077 18.6148 4.49474L18.8596 3.78443ZM17.3674 3.49049L17.4782 2.74739C17.3624 2.73013 17.3314 2.71861 17.3416 2.72199C17.351 2.7251 17.3627 2.7299 17.3719 2.73418C17.3888 2.74202 17.355 2.72625 17.3504 2.72418C17.3338 2.71668 17.2899 2.69718 17.232 2.68105C17.0819 2.63927 16.9524 2.65023 16.8661 2.66661C16.8077 2.67769 16.752 2.69536 16.7407 2.6988C16.6964 2.7123 16.6335 2.73218 16.5118 2.76478L16.7063 3.49049L16.9007 4.21619C17.0499 4.17622 17.1352 4.14941 17.1783 4.13629C17.1887 4.13311 17.1903 4.13271 17.1884 4.13323C17.1875 4.13348 17.1708 4.13822 17.1463 4.14287C17.1206 4.14775 17.0739 4.15503 17.0142 4.1546C16.9492 4.15412 16.8867 4.1447 16.8289 4.12859C16.7779 4.1144 16.741 4.09772 16.7324 4.09384C16.7275 4.09162 16.724 4.08996 16.7266 4.09116C16.7276 4.09164 16.7332 4.09432 16.7391 4.09704C16.7705 4.1116 16.8123 4.12952 16.8676 4.14788C16.9694 4.18174 17.093 4.20919 17.2566 4.23358L17.3674 3.49049ZM16.7063 3.49049L17.4319 3.29595L17.0335 1.80962L16.3078 2.00416L15.5821 2.19869L15.9806 3.68502L16.7063 3.49049ZM16.3078 2.00416L16.7257 2.62855C16.8274 2.56044 17.0656 2.4897 17.4231 2.46944C17.7576 2.45049 18.0787 2.48175 18.2464 2.5153L18.3938 1.77857L18.5411 1.04185C18.2424 0.982115 17.7935 0.943434 17.3382 0.969229C16.9059 0.993718 16.3343 1.08241 15.89 1.37976L16.3078 2.00416ZM18.3938 1.77857L18.2464 2.51529C18.7147 2.60893 19.6063 2.79565 20.3564 3.12113L20.6555 2.43189L20.9545 1.74266C20.0413 1.34646 19.006 1.13483 18.5411 1.04185L18.3938 1.77857ZM20.6555 2.43189L20.3564 3.12111C21.2138 3.49315 21.6278 3.94773 22.2987 4.7376L22.8713 4.25123L23.4439 3.76486C22.7533 2.95171 22.1508 2.26177 20.9545 1.74267L20.6555 2.43189ZM22.8713 4.25123L22.2986 4.73756C22.8575 5.39563 23.0769 5.92541 23.3325 6.9114L24.0598 6.72291L24.7871 6.53441C24.5 5.42675 24.2032 4.65889 23.444 3.7649L22.8713 4.25123ZM24.0598 6.72291L23.3325 6.9114C23.4831 7.49268 23.4603 7.71125 23.4716 8.73701L24.2229 8.72877L24.9741 8.72053C24.9637 7.76715 24.9943 7.33396 24.7871 6.53442L24.0598 6.72291ZM24.2229 8.72877L23.4716 8.737C23.4835 9.82341 23.4478 11.154 23.3154 12.1253L24.0598 12.2268L24.8042 12.3283C24.9516 11.2476 24.9863 9.83058 24.9741 8.72053L24.2229 8.72877ZM24.0598 12.2268L23.3154 12.1253C23.1757 13.1494 21.4975 24.8959 21.357 25.8794L22.1008 25.9856L22.8445 26.0918C22.9843 25.1138 24.6637 13.3587 24.8042 12.3283L24.0598 12.2268ZM22.1008 25.9856L21.357 25.8794C21.2979 26.2933 21.0226 27.8153 19.8574 29.28C18.714 30.7172 16.6536 32.1765 12.8702 32.4036L12.9152 33.1536L12.9603 33.9035C17.1459 33.6523 19.6102 32.0043 21.0333 30.2154C22.4346 28.454 22.7675 26.6311 22.8445 26.0918L22.1008 25.9856ZM12.9152 33.1536H12.1639V33.1819H12.9152H13.6665V33.1536H12.9152ZM12.9152 33.1819L12.9292 32.4307C12.8209 32.4287 12.7133 32.4252 12.606 32.4205L12.5734 33.1711L12.5409 33.9218C12.659 33.9269 12.7791 33.9308 12.9013 33.9331L12.9152 33.1819ZM12.5734 33.1711L12.5433 32.4204C12.4296 32.425 12.3288 32.4295 12.2261 32.4317L12.2424 33.1829L12.2587 33.934C12.3792 33.9314 12.4991 33.926 12.6036 33.9219L12.5734 33.1711ZM12.2424 33.1829H12.9937V33.1526H12.2424H11.4911V33.1829H12.2424ZM12.2424 33.1526L12.2937 32.403C9.01893 32.1787 6.96501 30.7188 5.70318 29.2216C4.41573 27.6941 3.95847 26.1328 3.91095 25.8002L3.16719 25.9065L2.42344 26.0128C2.51165 26.6301 3.08934 28.452 4.55422 30.19C6.04473 31.9585 8.46054 33.6466 12.191 33.9021L12.2424 33.1526ZM3.16719 25.9065L3.91095 25.8003C3.7707 24.8184 2.09355 13.0724 1.9536 12.0462L1.20919 12.1477L0.464768 12.2492C0.605569 13.2817 2.28392 25.036 2.42344 26.0127L3.16719 25.9065ZM1.20919 12.1477L1.95361 12.0462C1.82114 11.0747 1.78448 9.74374 1.79639 8.6579L1.04512 8.64966L0.293861 8.64143C0.281687 9.75195 0.317463 11.1689 0.464766 12.2492L1.20919 12.1477ZM1.04512 8.64966L1.79639 8.65791C1.80763 7.63355 1.78575 7.41383 1.93647 6.83229L1.20919 6.64381L0.481906 6.45532C0.274794 7.25447 0.304339 7.68675 0.293861 8.64142L1.04512 8.64966ZM1.20919 6.64381L1.93646 6.8323C2.19217 5.84572 2.41135 5.31558 2.97029 4.65752L2.39766 4.17115L1.82503 3.68477C1.06536 4.57917 0.768961 5.34777 0.481908 6.45531L1.20919 6.64381ZM2.39766 4.17115L2.97029 4.65753C3.64078 3.86814 4.05495 3.41414 4.91255 3.04201L4.61348 2.35279L4.31442 1.66357C3.1184 2.18255 2.51601 2.87126 1.82504 3.68477L2.39766 4.17115ZM4.61348 2.35279L4.91252 3.04202C5.66273 2.71653 6.55427 2.52983 7.02252 2.43619L6.8752 1.69947L6.72788 0.962747C6.26293 1.05572 5.22766 1.26734 4.31445 1.66356L4.61348 2.35279Z" fill="#003025" mask="url(#path-3-outside-1_771_336)"/>
<path d="M6.83223 1.71911C7.07773 1.67003 7.49114 1.63636 7.90743 1.66637C7.74215 1.67835 7.59603 1.6978 7.48458 1.72009C7.01793 1.8134 6.05451 2.01258 5.22286 2.37341C4.19613 2.81897 3.68777 3.39031 3.00704 4.19177C2.34785 4.96791 2.08992 5.61745 1.81856 6.66442C1.63979 7.35438 1.66535 7.68022 1.6545 8.6693C1.64245 9.76744 1.67869 11.1414 1.81856 12.1674C1.9587 13.1951 3.63667 24.9477 3.77657 25.9271C3.91288 26.8784 5.84728 32.6925 12.8498 33.1732V33.2006C12.7413 33.1984 12.6338 33.1954 12.5275 33.1908C12.4188 33.1951 12.3087 33.1991 12.1975 33.2015V33.1722C5.19375 32.6915 3.25995 26.876 3.12422 25.9261C2.98401 24.9445 1.30657 13.1966 1.16622 12.1674C1.02637 11.1414 0.990116 9.76736 1.00215 8.6693C1.013 7.68005 0.987322 7.35371 1.16622 6.66344C1.43756 5.61657 1.69545 4.96694 2.35469 4.19079C3.03534 3.38944 3.54379 2.81795 4.57051 2.37243C5.4022 2.01161 6.36566 1.81241 6.83223 1.71911ZM17.3166 3.50915C17.8536 3.36506 17.4172 3.42697 17.9748 3.51012C18.5333 3.59341 18.9054 3.61149 19.467 3.80505C20.2305 4.06821 20.7324 4.41124 21.2629 4.83044C21.9121 5.34351 22.2533 6.1755 22.4055 6.74352C22.5575 7.31141 22.5773 8.01671 22.592 8.74841C22.6141 9.84634 22.5773 10.7075 22.4992 11.5004C22.4208 12.2954 20.7278 24.7402 20.5871 25.2591C20.4474 25.7735 21.0051 30.7302 12.8498 30.9632V30.974C12.7836 30.9645 12.7185 30.9511 12.6535 30.9408C20.3317 30.539 19.7977 25.7635 19.9348 25.2591C20.0753 24.7413 21.7688 12.2921 21.8469 11.4994C21.9249 10.7067 21.9617 9.84521 21.9397 8.74743C21.9249 8.01574 21.9052 7.31036 21.7531 6.74255C21.6009 6.1746 21.2594 5.34343 20.6106 4.83044C20.0801 4.41127 19.5781 4.06722 18.8147 3.80407C18.2532 3.61056 17.8809 3.59339 17.3225 3.51012C17.3205 3.50983 17.3186 3.50944 17.3166 3.50915ZM16.2629 2.0238C16.6783 1.74592 17.3987 1.70745 17.925 1.74548C17.5505 1.77257 17.1738 1.85178 16.9152 2.02477L17.3127 3.50817C16.7692 3.42562 17.1996 3.3659 16.6613 3.51012L16.2629 2.0238ZM8.51973 3.43102C8.51843 3.43067 8.51712 3.43039 8.51583 3.43005C8.51715 3.42985 8.51842 3.42927 8.51973 3.42907V3.43102Z" fill="#09493E"/>
<path d="M38.0801 24.3237C41.0409 24.3237 43.4414 26.7241 43.4414 29.6851C43.4412 32.6458 41.0408 35.0464 38.0801 35.0464C35.1196 35.0462 32.7199 32.6457 32.7197 29.6851C32.7197 26.7242 35.1194 24.3239 38.0801 24.3237Z" fill="#D3F7FF" stroke="#003025" stroke-width="0.751308"/>
<path d="M36.952 34.554C36.833 34.5221 36.7163 34.4859 36.6018 34.446C39.146 34.938 41.6771 33.3743 42.3618 30.8191C43.0453 28.2678 41.6402 25.6531 39.1978 24.803C39.3131 24.8253 39.4288 24.8498 39.544 24.8806C42.2011 25.5926 43.7754 28.3358 43.0596 31.007C42.3437 33.6782 39.609 35.2659 36.952 34.554Z" fill="#09493E"/>
<path d="M38.127 26.9353C39.6195 26.9353 40.83 28.1449 40.8301 29.6375C40.8301 31.1301 39.6195 32.3406 38.127 32.3406C36.6344 32.3405 35.4248 31.1301 35.4248 29.6375C35.4249 28.1449 36.6345 26.9354 38.127 26.9353Z" fill="#F25F24" stroke="#003025" stroke-width="0.751308"/>
<mask id="path-9-outside-2_771_336" maskUnits="userSpaceOnUse" x="13.3594" y="0" width="5" height="5" fill="black">
<rect fill="white" x="13.3594" width="5" height="5"/>
<path d="M15.8516 1C16.1928 1.00004 16.5064 1.11582 16.7578 1.30859H17.5498V3.57324H16.8789C16.6113 3.82783 16.2501 3.9853 15.8516 3.98535C15.0273 3.98535 14.3594 3.31649 14.3594 2.49219C14.3596 1.66804 15.0274 1 15.8516 1Z"/>
</mask>
<path d="M15.8516 1C16.1928 1.00004 16.5064 1.11582 16.7578 1.30859H17.5498V3.57324H16.8789C16.6113 3.82783 16.2501 3.9853 15.8516 3.98535C15.0273 3.98535 14.3594 3.31649 14.3594 2.49219C14.3596 1.66804 15.0274 1 15.8516 1Z" fill="#003B2D"/>
<path d="M15.8516 1L15.8517 0.248692H15.8516V1ZM16.7578 1.30859L16.3006 1.90479L16.5029 2.0599H16.7578V1.30859ZM17.5498 1.30859H18.3011V0.557285H17.5498V1.30859ZM17.5498 3.57324V4.32455H18.3011V3.57324H17.5498ZM16.8789 3.57324V2.82193H16.5787L16.3611 3.02887L16.8789 3.57324ZM15.8516 3.98535L15.8516 4.73666L15.8517 4.73666L15.8516 3.98535ZM14.3594 2.49219L13.6081 2.49202V2.49219H14.3594ZM15.8516 1L15.8515 1.75131C16.0195 1.75133 16.1739 1.80762 16.3006 1.90479L16.7578 1.30859L17.215 0.7124C16.8389 0.424014 16.3662 0.248758 15.8517 0.248692L15.8516 1ZM16.7578 1.30859V2.0599H17.5498V1.30859V0.557285H16.7578V1.30859ZM17.5498 1.30859H16.7985V3.57324H17.5498H18.3011V1.30859H17.5498ZM17.5498 3.57324V2.82193H16.8789V3.57324V4.32455H17.5498V3.57324ZM16.8789 3.57324L16.3611 3.02887C16.226 3.15741 16.0477 3.23402 15.8515 3.23404L15.8516 3.98535L15.8517 4.73666C16.4525 4.73658 16.9965 4.49824 17.3967 4.11762L16.8789 3.57324ZM15.8516 3.98535V3.23404C15.4429 3.23404 15.1107 2.90218 15.1107 2.49219H14.3594H13.6081C13.6081 3.7308 14.6117 4.73666 15.8516 4.73666V3.98535ZM14.3594 2.49219L15.1107 2.49236C15.1108 2.08286 15.4425 1.75131 15.8516 1.75131V1V0.248692C14.6123 0.248692 13.6083 1.25323 13.6081 2.49202L14.3594 2.49219Z" fill="#003025" mask="url(#path-9-outside-2_771_336)"/>
<mask id="path-11-outside-3_771_336" maskUnits="userSpaceOnUse" x="6.9082" y="0" width="5" height="5" fill="black">
<rect fill="white" x="6.9082" width="5" height="5"/>
<path d="M9.41602 1C9.07474 1.00002 8.76118 1.11583 8.50977 1.30859H7.71777V3.57324H8.38867C8.65634 3.82782 9.01747 3.98533 9.41602 3.98535C10.2403 3.98535 10.9082 3.31649 10.9082 2.49219C10.908 1.66804 10.2402 1 9.41602 1Z"/>
</mask>
<path d="M9.41602 1C9.07474 1.00002 8.76118 1.11583 8.50977 1.30859H7.71777V3.57324H8.38867C8.65634 3.82782 9.01747 3.98533 9.41602 3.98535C10.2403 3.98535 10.9082 3.31649 10.9082 2.49219C10.908 1.66804 10.2402 1 9.41602 1Z" fill="#003B2D"/>
<path d="M9.41602 1L9.41597 0.248692H9.41602V1ZM8.50977 1.30859L8.96691 1.90481L8.76465 2.0599H8.50977V1.30859ZM7.71777 1.30859H6.96647V0.557285H7.71777V1.30859ZM7.71777 3.57324V4.32455H6.96647V3.57324H7.71777ZM8.38867 3.57324V2.82193H8.6889L8.90644 3.02884L8.38867 3.57324ZM9.41602 3.98535L9.41602 4.73666L9.41597 4.73666L9.41602 3.98535ZM10.9082 2.49219L11.6595 2.49202V2.49219H10.9082ZM9.41602 1L9.41606 1.75131C9.24815 1.75132 9.09372 1.80758 8.96691 1.90481L8.50977 1.30859L8.05262 0.712373C8.42863 0.42407 8.90134 0.24872 9.41597 0.248692L9.41602 1ZM8.50977 1.30859V2.0599H7.71777V1.30859V0.557285H8.50977V1.30859ZM7.71777 1.30859H8.46908V3.57324H7.71777H6.96647V1.30859H7.71777ZM7.71777 3.57324V2.82193H8.38867V3.57324V4.32455H7.71777V3.57324ZM8.38867 3.57324L8.90644 3.02884C9.04167 3.15745 9.21996 3.23403 9.41606 3.23404L9.41602 3.98535L9.41597 4.73666C8.81497 4.73663 8.27101 4.49818 7.8709 4.11765L8.38867 3.57324ZM9.41602 3.98535V3.23404C9.82472 3.23404 10.1569 2.90218 10.1569 2.49219H10.9082H11.6595C11.6595 3.7308 10.6558 4.73666 9.41602 4.73666V3.98535ZM10.9082 2.49219L10.1569 2.49236C10.1568 2.08286 9.82507 1.75131 9.41602 1.75131V1V0.248692C10.6553 0.248692 11.6592 1.25323 11.6595 2.49202L10.9082 2.49219Z" fill="#003025" mask="url(#path-11-outside-3_771_336)"/>
<path d="M5.10547 20.6826C5.10547 20.6826 6.69122 23.5744 12.6611 23.5744C18.631 23.5744 20.1701 20.6826 20.1701 20.6826" stroke="#003025" stroke-width="0.751308" stroke-linecap="round"/>
<mask id="path-14-outside-4_771_336" maskUnits="userSpaceOnUse" x="28.7344" y="5.87671" width="14" height="14" fill="black">
<rect fill="white" x="28.7344" y="5.87671" width="14" height="14"/>
<path d="M37.3369 10.7478H41.208V14.4792H37.3369V18.3503H33.6055V14.4792H29.7344V10.7478H33.6055V6.87671H37.3369V10.7478Z"/>
</mask>
<path d="M37.3369 10.7478H41.208V14.4792H37.3369V18.3503H33.6055V14.4792H29.7344V10.7478H33.6055V6.87671H37.3369V10.7478Z" fill="#D8FFF6"/>
<path d="M37.3369 10.7478H36.5856V11.4991H37.3369V10.7478ZM41.208 10.7478H41.9593V9.99649H41.208V10.7478ZM41.208 14.4792V15.2306H41.9593V14.4792H41.208ZM37.3369 14.4792V13.7279H36.5856V14.4792H37.3369ZM37.3369 18.3503V19.1017H38.0882V18.3503H37.3369ZM33.6055 18.3503H32.8542V19.1017H33.6055V18.3503ZM33.6055 14.4792H34.3568V13.7279H33.6055V14.4792ZM29.7344 14.4792H28.9831V15.2306H29.7344V14.4792ZM29.7344 10.7478V9.99649H28.9831V10.7478H29.7344ZM33.6055 10.7478V11.4991H34.3568V10.7478H33.6055ZM33.6055 6.87671V6.1254H32.8542V6.87671H33.6055ZM37.3369 6.87671H38.0882V6.1254H37.3369V6.87671ZM37.3369 10.7478V11.4991H41.208V10.7478V9.99649H37.3369V10.7478ZM41.208 10.7478H40.4567V14.4792H41.208H41.9593V10.7478H41.208ZM41.208 14.4792V13.7279H37.3369V14.4792V15.2306H41.208V14.4792ZM37.3369 14.4792H36.5856V18.3503H37.3369H38.0882V14.4792H37.3369ZM37.3369 18.3503V17.599H33.6055V18.3503V19.1017H37.3369V18.3503ZM33.6055 18.3503H34.3568V14.4792H33.6055H32.8542V18.3503H33.6055ZM33.6055 14.4792V13.7279H29.7344V14.4792V15.2306H33.6055V14.4792ZM29.7344 14.4792H30.4857V10.7478H29.7344H28.9831V14.4792H29.7344ZM29.7344 10.7478V11.4991H33.6055V10.7478V9.99649H29.7344V10.7478ZM33.6055 10.7478H34.3568V6.87671H33.6055H32.8542V10.7478H33.6055ZM33.6055 6.87671V7.62802H37.3369V6.87671V6.1254H33.6055V6.87671ZM37.3369 6.87671H36.5856V10.7478H37.3369H38.0882V6.87671H37.3369Z" fill="#003025" mask="url(#path-14-outside-4_771_336)"/>
</svg>
