<svg width="237" height="180" viewBox="0 0 237 180" fill="none" xmlns="http://www.w3.org/2000/svg">
<circle cx="161" cy="104" r="67" fill="#004945"/>
<rect x="156.248" y="55.2261" width="25.4314" height="8.03357" rx="4.01678" transform="rotate(-90 156.248 55.2261)" fill="#E6FFFE"/>
<rect x="209.936" y="100.88" width="25.4314" height="8.03357" rx="4.01678" fill="#E6FFFE"/>
<rect x="127.98" y="142.861" width="25.4314" height="8.03357" rx="4.01678" transform="rotate(135 127.98 142.861)" fill="#E6FFFE"/>
<rect x="122.301" y="72.613" width="25.4314" height="8.03357" rx="4.01678" transform="rotate(-135 122.301 72.613)" fill="#E6FFFE"/>
<rect x="194.939" y="74.8184" width="43.5042" height="8.03357" rx="4.01678" transform="rotate(135 194.939 74.8184)" fill="#E6FFFE"/>
<rect x="156.248" y="180" width="25.4314" height="8.03357" rx="4.01678" transform="rotate(-90 156.248 180)" fill="#E6FFFE"/>
<rect x="85.1621" y="100.88" width="25.4314" height="8.03357" rx="4.01678" fill="#E6FFFE"/>
<rect x="216.211" y="54.6323" width="25.4314" height="8.03357" rx="4.01678" transform="rotate(135 216.211 54.6323)" fill="#E6FFFE"/>
<rect x="210.531" y="160.842" width="25.4314" height="8.03357" rx="4.01678" transform="rotate(-135 210.531 160.842)" fill="#E6FFFE"/>
<circle cx="160.183" cy="103.423" r="8.43067" fill="#E6FFFE"/>
<path d="M159.98 31.9778C199.355 31.9778 231.265 63.8617 231.265 103.179C231.265 142.496 199.355 174.379 159.98 174.379C120.606 174.379 88.6964 142.496 88.6963 103.179C88.6963 63.8618 120.606 31.978 159.98 31.9778Z" stroke="#00A89E" stroke-width="11.2409"/>
<rect x="82.0586" y="61.2693" width="46.0876" height="8.99271" rx="4.49635" transform="rotate(-180 82.0586 61.2693)" fill="#00A89E"/>
<rect x="73.0664" y="84.8751" width="59.5767" height="10.1168" rx="4.49636" transform="rotate(180 73.0664 84.8751)" fill="#00A89E"/>
<rect x="67.4453" y="108.481" width="67.4453" height="10.1168" rx="4.49636" transform="rotate(180 67.4453 108.481)" fill="#00A89E"/>
<rect x="73.0664" y="132.087" width="57.3285" height="10.1168" rx="4.49636" transform="rotate(180 73.0664 132.087)" fill="#00A89E"/>
<rect x="82.0586" y="155.693" width="46.0876" height="10.1168" rx="4.49636" transform="rotate(180 82.0586 155.693)" fill="#00A89E"/>
<rect x="154.678" y="22.7244" width="21.9197" height="9.02577" rx="4.51289" transform="rotate(-90 154.678 22.7244)" fill="#00A89E"/>
<rect x="136.627" width="43.8395" height="9.02577" rx="4.51289" fill="#00A89E"/>
</svg>
