<svg width="165" height="180" viewBox="0 0 165 180" fill="none" xmlns="http://www.w3.org/2000/svg">
<path d="M81.217 180C81.217 180 128.202 153.955 145.419 126.116C166.752 91.6215 166.953 30.3911 162.034 24.0855C157.115 17.78 135.166 20.8691 119.05 16.0557C103.672 11.4627 89.2432 -0.283721 81.217 0.00523688C73.1908 0.294194 60.9253 11.492 46.8231 16.0557C29.9811 21.5061 5.53774 18.931 2.10226 23.5123C-2.20978 29.2625 -1.49415 91.5193 19.8812 126.116C36.6396 153.24 81.217 180 81.217 180Z" fill="#00A89E"/>
<mask id="path-2-outside-1_771_198" maskUnits="userSpaceOnUse" x="35.1113" y="36.7391" width="94" height="94" fill="black">
<rect fill="white" x="35.1113" y="36.7391" width="94" height="94"/>
<path d="M95.9639 70.1796H124.404V97.5917H95.9639V126.033H68.5518V97.5917H40.1113V70.1796H68.5518V41.7391H95.9639V70.1796Z"/>
</mask>
<path d="M95.9639 70.1796H124.404V97.5917H95.9639V126.033H68.5518V97.5917H40.1113V70.1796H68.5518V41.7391H95.9639V70.1796Z" fill="#E6FFFE"/>
<path d="M95.9639 70.1796H91.6958V74.4476H95.9639V70.1796ZM124.404 70.1796H128.672V65.9115H124.404V70.1796ZM124.404 97.5917V101.86H128.672V97.5917H124.404ZM95.9639 97.5917V93.3237H91.6958V97.5917H95.9639ZM95.9639 126.033V130.301H100.232V126.033H95.9639ZM68.5518 126.033H64.2837V130.301H68.5518V126.033ZM68.5518 97.5917H72.8198V93.3237H68.5518V97.5917ZM40.1113 97.5917H35.8433V101.86H40.1113V97.5917ZM40.1113 70.1796V65.9115H35.8433V70.1796H40.1113ZM68.5518 70.1796V74.4476H72.8198V70.1796H68.5518ZM68.5518 41.7391V37.4711H64.2837V41.7391H68.5518ZM95.9639 41.7391H100.232V37.4711H95.9639V41.7391ZM95.9639 70.1796V74.4476H124.404V70.1796V65.9115H95.9639V70.1796ZM124.404 70.1796H120.136V97.5917H124.404H128.672V70.1796H124.404ZM124.404 97.5917V93.3237H95.9639V97.5917V101.86H124.404V97.5917ZM95.9639 97.5917H91.6958V126.033H95.9639H100.232V97.5917H95.9639ZM95.9639 126.033V121.765H68.5518V126.033V130.301H95.9639V126.033ZM68.5518 126.033H72.8198V97.5917H68.5518H64.2837V126.033H68.5518ZM68.5518 97.5917V93.3237H40.1113V97.5917V101.86H68.5518V97.5917ZM40.1113 97.5917H44.3794V70.1796H40.1113H35.8433V97.5917H40.1113ZM40.1113 70.1796V74.4476H68.5518V70.1796V65.9115H40.1113V70.1796ZM68.5518 70.1796H72.8198V41.7391H68.5518H64.2837V70.1796H68.5518ZM68.5518 41.7391V46.0072H95.9639V41.7391V37.4711H68.5518V41.7391ZM95.9639 41.7391H91.6958V70.1796H95.9639H100.232V41.7391H95.9639Z" fill="#003025" mask="url(#path-2-outside-1_771_198)"/>
</svg>
