<svg width="193" height="180" viewBox="0 0 193 180" fill="none" xmlns="http://www.w3.org/2000/svg">
<rect x="48.6602" width="94.7949" height="94.7949" rx="21.5443" fill="#00A89E"/>
<path d="M130.529 10.772V81.8682H112.934V51.5788L96.5963 67.9856L80.2586 51.5788V81.8682H62.6641V11.193H80.2586V32.2269L96.5963 46.9506L112.934 32.2269V11.193L130.529 10.772Z" fill="white"/>
<rect x="119.891" y="14.0039" width="4.03956" height="12.9266" fill="#00A89E"/>
<rect x="128.371" y="18.4473" width="4.03956" height="12.9266" transform="rotate(90 128.371 18.4473)" fill="#00A89E"/>
<path d="M192.815 99.4689C192.815 99.4689 194.728 121.849 160.68 149.203C130.221 173.673 105.207 180 69.4365 180C43.1514 180 6.50336 161.254 0 152.264C4.97341 142.317 16.6419 123.571 37.1094 119.171C59.681 114.319 78.8097 120.51 89.7129 119.171C100.616 117.832 115.537 107.886 119.171 107.886C122.805 135.048 76.5137 131.605 76.5137 137.534C76.5147 143.463 117.466 144.607 144.229 132.753C162.74 124.555 192.815 99.4689 192.815 99.4689Z" fill="#00A89E"/>
<path d="M144.783 115.92C131.181 128.186 105.016 140.787 105.016 140.787C105.016 140.787 147.098 139.256 166.352 113.433C171.318 106.772 166.352 91.0524 166.352 91.0524C166.352 91.0524 154.33 107.31 144.783 115.92Z" fill="#00A89E"/>
</svg>
