<svg width="170" height="212" viewBox="0 0 170 212" fill="none" xmlns="http://www.w3.org/2000/svg">
<rect width="169.843" height="169.843" rx="38.6006" fill="#00A89E"/>
<path d="M146.682 19.3003V146.682H115.158V92.4133L85.8863 121.809L56.6142 92.4133V146.682H25.0903V20.0546H56.6142V57.7409L85.8863 84.1211L115.158 57.7409V20.0546L146.682 19.3003Z" fill="white"/>
<rect x="127.623" y="25.0906" width="7.23762" height="23.1604" fill="#00A89E"/>
<rect x="142.822" y="33.0519" width="7.23762" height="23.1604" transform="rotate(90 142.822 33.0519)" fill="#00A89E"/>
<path d="M47.996 181.344V201H43.208V189.212L38.812 201H34.948L30.524 189.184V201H25.736V181.344H31.392L36.908 194.952L42.368 181.344H47.996ZM66.1671 192.936C66.1671 193.384 66.1391 193.851 66.0831 194.336H55.2471C55.3218 195.307 55.6298 196.053 56.1711 196.576C56.7311 197.08 57.4125 197.332 58.2151 197.332C59.4098 197.332 60.2405 196.828 60.7071 195.82H65.8031C65.5418 196.847 65.0658 197.771 64.3751 198.592C63.7031 199.413 62.8538 200.057 61.8271 200.524C60.8005 200.991 59.6525 201.224 58.3831 201.224C56.8525 201.224 55.4898 200.897 54.2951 200.244C53.1005 199.591 52.1671 198.657 51.4951 197.444C50.8231 196.231 50.4871 194.812 50.4871 193.188C50.4871 191.564 50.8138 190.145 51.4671 188.932C52.1391 187.719 53.0725 186.785 54.2671 186.132C55.4618 185.479 56.8338 185.152 58.3831 185.152C59.8951 185.152 61.2391 185.469 62.4151 186.104C63.5911 186.739 64.5058 187.644 65.1591 188.82C65.8311 189.996 66.1671 191.368 66.1671 192.936ZM61.2671 191.676C61.2671 190.855 60.9871 190.201 60.4271 189.716C59.8671 189.231 59.1671 188.988 58.3271 188.988C57.5245 188.988 56.8431 189.221 56.2831 189.688C55.7418 190.155 55.4058 190.817 55.2751 191.676H61.2671ZM67.741 193.16C67.741 191.555 68.0397 190.145 68.637 188.932C69.253 187.719 70.0837 186.785 71.129 186.132C72.1744 185.479 73.341 185.152 74.629 185.152C75.6557 185.152 76.589 185.367 77.429 185.796C78.2877 186.225 78.9597 186.804 79.445 187.532V180.28H84.233V201H79.445V198.76C78.997 199.507 78.353 200.104 77.513 200.552C76.6917 201 75.7304 201.224 74.629 201.224C73.341 201.224 72.1744 200.897 71.129 200.244C70.0837 199.572 69.253 198.629 68.637 197.416C68.0397 196.184 67.741 194.765 67.741 193.16ZM79.445 193.188C79.445 191.993 79.109 191.051 78.437 190.36C77.7837 189.669 76.981 189.324 76.029 189.324C75.077 189.324 74.265 189.669 73.593 190.36C72.9397 191.032 72.613 191.965 72.613 193.16C72.613 194.355 72.9397 195.307 73.593 196.016C74.265 196.707 75.077 197.052 76.029 197.052C76.981 197.052 77.7837 196.707 78.437 196.016C79.109 195.325 79.445 194.383 79.445 193.188ZM104.721 181.344V201H99.9329V192.908H92.4849V201H87.6969V181.344H92.4849V189.044H99.9329V181.344H104.721ZM123.605 185.376V201H118.817V198.872C118.332 199.563 117.669 200.123 116.829 200.552C116.008 200.963 115.093 201.168 114.085 201.168C112.891 201.168 111.836 200.907 110.921 200.384C110.007 199.843 109.297 199.068 108.793 198.06C108.289 197.052 108.037 195.867 108.037 194.504V185.376H112.797V193.86C112.797 194.905 113.068 195.717 113.609 196.296C114.151 196.875 114.879 197.164 115.793 197.164C116.727 197.164 117.464 196.875 118.005 196.296C118.547 195.717 118.817 194.905 118.817 193.86V185.376H123.605ZM131.833 187.588C132.281 186.86 132.925 186.272 133.765 185.824C134.605 185.376 135.566 185.152 136.649 185.152C137.937 185.152 139.103 185.479 140.149 186.132C141.194 186.785 142.015 187.719 142.613 188.932C143.229 190.145 143.537 191.555 143.537 193.16C143.537 194.765 143.229 196.184 142.613 197.416C142.015 198.629 141.194 199.572 140.149 200.244C139.103 200.897 137.937 201.224 136.649 201.224C135.547 201.224 134.586 201.009 133.765 200.58C132.943 200.132 132.299 199.544 131.833 198.816V201H127.045V180.28H131.833V187.588ZM138.665 193.16C138.665 191.965 138.329 191.032 137.657 190.36C137.003 189.669 136.191 189.324 135.221 189.324C134.269 189.324 133.457 189.669 132.785 190.36C132.131 191.051 131.805 191.993 131.805 193.188C131.805 194.383 132.131 195.325 132.785 196.016C133.457 196.707 134.269 197.052 135.221 197.052C136.173 197.052 136.985 196.707 137.657 196.016C138.329 195.307 138.665 194.355 138.665 193.16Z" fill="#00A89E"/>
</svg>
