<svg width="12" height="13" viewBox="0 0 12 13" fill="none" xmlns="http://www.w3.org/2000/svg">
<g id="Vector">
<path id="Vector-17" fill-rule="evenodd" clip-rule="evenodd" d="M4.81909 4.83302C4.81909 4.1885 5.34158 3.66602 5.98609 3.66602C6.63061 3.66602 7.15309 4.1885 7.15309 4.83302C7.15309 5.47753 6.63061 6.00002 5.98609 6.00002C5.67658 6.00002 5.37975 5.87706 5.1609 5.65821C4.94204 5.43935 4.81909 5.14252 4.81909 4.83302H4.81909Z" stroke="#0C4CA6" stroke-width="1.5" stroke-linecap="round" stroke-linejoin="round"/>
<path id="Vector-18" fill-rule="evenodd" clip-rule="evenodd" d="M8.80471 10.4295L6.58246 7.95004C6.42933 7.78306 6.21316 7.68799 5.98659 7.68799C5.76002 7.68799 5.54384 7.78306 5.39071 7.95004L3.16771 10.4295C2.97909 10.651 2.94086 10.9636 3.07055 11.224C3.20025 11.4844 3.47283 11.6422 3.76321 11.625H8.20921C8.49959 11.6422 8.77218 11.4844 8.90187 11.224C9.03157 10.9636 8.99333 10.651 8.80471 10.4295V10.4295Z" stroke="#0C4CA6" stroke-width="1.5" stroke-linecap="round" stroke-linejoin="round"/>
<path id="Vector-19" d="M3.14895 7.72244C3.45571 8.00077 3.93003 7.97773 4.20836 7.67097C4.4867 7.36421 4.46366 6.8899 4.1569 6.61156L3.14895 7.72244ZM4.1569 2.47244C4.46366 2.1941 4.4867 1.71979 4.20836 1.41303C3.93003 1.10627 3.45571 1.08323 3.14895 1.36156L4.1569 2.47244ZM7.81545 6.61156C7.50869 6.8899 7.48565 7.36421 7.76399 7.67097C8.04232 7.97773 8.51664 8.00077 8.8234 7.72244L7.81545 6.61156ZM8.8234 1.36156C8.51664 1.08323 8.04232 1.10627 7.76399 1.41303C7.48565 1.71979 7.50869 2.1941 7.81545 2.47244L8.8234 1.36156ZM9.4462 7.91638C9.21556 8.26044 9.3075 8.72633 9.65155 8.95697C9.99561 9.18762 10.4615 9.09568 10.6921 8.75162L9.4462 7.91638ZM10.6921 0.332379C10.4615 -0.0116785 9.99561 -0.103617 9.65155 0.127029C9.3075 0.357675 9.21556 0.823564 9.4462 1.16762L10.6921 0.332379ZM1.28018 8.75083C1.5108 9.0949 1.97668 9.18687 2.32075 8.95625C2.66483 8.72563 2.7568 8.25974 2.52617 7.91567L1.28018 8.75083ZM2.52617 1.16758C2.7568 0.823507 2.66483 0.357625 2.32075 0.127002C1.97668 -0.103621 1.5108 -0.0116524 1.28018 0.33242L2.52617 1.16758ZM3.65292 7.167L4.1569 6.61156C3.57312 6.08187 3.2402 5.33027 3.2402 4.542H2.4902H1.7402C1.7402 5.75339 2.25182 6.90843 3.14895 7.72244L3.65292 7.167ZM2.4902 4.542H3.2402C3.2402 3.75373 3.57312 3.00213 4.1569 2.47244L3.65292 1.917L3.14895 1.36156C2.25182 2.17557 1.7402 3.33061 1.7402 4.542H2.4902ZM8.31942 7.167L8.8234 7.72244C9.72053 6.90843 10.2321 5.75339 10.2321 4.542H9.48215H8.73215C8.73215 5.33027 8.39923 6.08187 7.81545 6.61156L8.31942 7.167ZM9.48215 4.542H10.2321C10.2321 3.33061 9.72053 2.17557 8.8234 1.36156L8.31942 1.917L7.81545 2.47244C8.39923 3.00213 8.73215 3.75373 8.73215 4.542H9.48215ZM10.0692 8.334L10.6921 8.75162C12.3994 6.20486 12.3994 2.87914 10.6921 0.332379L10.0692 0.75L9.4462 1.16762C10.8147 3.20907 10.8147 5.87493 9.4462 7.91638L10.0692 8.334ZM1.90317 8.33325L2.52617 7.91567C1.15794 5.87437 1.15794 3.20888 2.52617 1.16758L1.90317 0.75L1.28018 0.33242C-0.426725 2.87899 -0.426725 6.20426 1.28018 8.75083L1.90317 8.33325Z" fill="#0C4CA6"/>
</g>
</svg>
