<svg width="24" height="24" viewBox="0 0 24 24" fill="none" xmlns="http://www.w3.org/2000/svg">
<g id="mage:share-fill">
<path id="Vector" d="M21.9598 17.9769C21.9584 18.531 21.8419 19.0787 21.6178 19.5854C21.3936 20.0921 21.0666 20.5467 20.6575 20.9204C20.2484 21.2941 19.7662 21.5787 19.2413 21.7562C18.7164 21.9337 18.1604 22.0003 17.6085 21.9516C17.0566 21.9029 16.5208 21.7401 16.0351 21.4735C15.5493 21.2069 15.1243 20.8423 14.7869 20.4028C14.4495 19.9633 14.2071 19.4585 14.0751 18.9204C13.943 18.3823 13.9242 17.8227 14.0198 17.2769L9.11977 15.0569C8.74534 15.5215 8.27171 15.8964 7.73358 16.1543C7.19545 16.4121 6.60646 16.5462 6.00977 16.5469C4.9489 16.5469 3.93148 16.1255 3.18134 15.3753C2.43119 14.6252 2.00977 13.6078 2.00977 12.5469C2.00977 11.486 2.43119 10.4686 3.18134 9.71847C3.93148 8.96833 4.9489 8.5469 6.00977 8.5469C6.55823 8.54867 7.10048 8.66321 7.60281 8.8834C8.10513 9.1036 8.55681 9.42475 8.92977 9.8269L14.0898 7.0269C13.9997 6.70132 13.956 6.36468 13.9598 6.0269C13.9587 5.09626 14.2822 4.19439 14.8746 3.47659C15.4669 2.75879 16.291 2.26998 17.2049 2.09435C18.1188 1.91871 19.0653 2.06724 19.8815 2.51436C20.6977 2.96148 21.3325 3.6792 21.6765 4.54392C22.0205 5.40865 22.0522 6.36626 21.7662 7.25186C21.4801 8.13745 20.8943 8.89559 20.1094 9.39573C19.3246 9.89587 18.39 10.1067 17.4664 9.99193C16.5429 9.87715 15.6883 9.44394 15.0498 8.7669L9.88977 11.5769C9.97977 11.9042 10.0231 12.2376 10.0198 12.5769C10.0203 12.8115 10.0003 13.0458 9.95977 13.2769L14.8598 15.4969C15.378 14.8456 16.0864 14.3722 16.8864 14.1426C17.6864 13.913 18.5381 13.9386 19.3228 14.216C20.1075 14.4933 20.7862 15.0086 21.2642 15.6899C21.7423 16.3712 21.9959 17.1846 21.9898 18.0169L21.9598 17.9769Z" fill="#757575"/>
</g>
</svg>
