<svg width="11" height="10" viewBox="0 0 11 10" fill="none" xmlns="http://www.w3.org/2000/svg">
<g id="streamline:bag-suitcase-2-solid" clip-path="url(#clip0_611_1887)">
<path id="Vector" fill-rule="evenodd" clip-rule="evenodd" d="M4.39272 0.0146484C4.0612 0.0146484 3.74325 0.146345 3.50883 0.380765C3.27441 0.615185 3.14272 0.933128 3.14272 1.26465V2.14322H1.89272C1.60856 2.14322 1.33604 2.2561 1.1351 2.45703C0.934171 2.65797 0.821289 2.93049 0.821289 3.21465L0.821289 8.92893C0.821289 9.21309 0.934171 9.48562 1.1351 9.68655C1.33604 9.88748 1.60856 10.0004 1.89272 10.0004H9.74986C10.034 10.0004 10.3065 9.88748 10.5075 9.68655C10.7084 9.48562 10.8213 9.21309 10.8213 8.92893V3.21465C10.8213 2.93049 10.7084 2.65797 10.5075 2.45703C10.3065 2.2561 10.034 2.14322 9.74986 2.14322H8.49986V1.26465C8.49986 0.933128 8.36817 0.615185 8.13374 0.380765C7.89932 0.146345 7.58138 0.0146484 7.24986 0.0146484H4.39272ZM7.42843 2.14322V1.26465C7.42843 1.21729 7.40962 1.17187 7.37613 1.13838C7.34264 1.10489 7.29722 1.08608 7.24986 1.08608H4.39272C4.34536 1.08608 4.29994 1.10489 4.26645 1.13838C4.23296 1.17187 4.21415 1.21729 4.21415 1.26465V2.14322H7.42843Z" fill="#F25F24"/>
</g>
<defs>
<clipPath id="clip0_611_1887">
<rect width="10" height="10" fill="white" transform="translate(0.821289)"/>
</clipPath>
</defs>
</svg>
