<svg width="20" height="22" viewBox="0 0 20 22" fill="none" xmlns="http://www.w3.org/2000/svg">
<g id="Group">
<path id="Vector" fill-rule="evenodd" clip-rule="evenodd" d="M10.746 21.2682L10.735 21.2702L10.664 21.3052L10.644 21.3092L10.63 21.3052L10.559 21.2702C10.5483 21.2669 10.5403 21.2685 10.535 21.2752L10.531 21.2852L10.514 21.7132L10.519 21.7332L10.529 21.7462L10.633 21.8202L10.648 21.8242L10.66 21.8202L10.764 21.7462L10.776 21.7302L10.78 21.7132L10.763 21.2862C10.7603 21.2755 10.7547 21.2695 10.746 21.2682ZM11.011 21.1552L10.998 21.1572L10.813 21.2502L10.803 21.2602L10.8 21.2712L10.818 21.7012L10.823 21.7132L10.831 21.7202L11.032 21.8132C11.0447 21.8165 11.0543 21.8139 11.061 21.8052L11.065 21.7912L11.031 21.1772C11.0277 21.1652 11.021 21.1579 11.011 21.1552ZM10.296 21.1572C10.2916 21.1545 10.2863 21.1537 10.2813 21.1548C10.2763 21.1559 10.2719 21.1589 10.269 21.1632L10.263 21.1772L10.229 21.7912C10.2297 21.8032 10.2353 21.8112 10.246 21.8152L10.261 21.8132L10.462 21.7202L10.472 21.7122L10.476 21.7012L10.493 21.2712L10.49 21.2592L10.48 21.2492L10.296 21.1572Z" fill="#F44336"/>
<path id="Vector_2" fill-rule="evenodd" clip-rule="evenodd" d="M14.7048 20.1432C13.2648 20.0902 9.18383 19.5262 4.90983 15.2532C0.636832 10.9792 0.0738318 6.89923 0.0198318 5.45823C-0.0601682 3.26223 1.62183 1.12923 3.56483 0.296225C3.79881 0.195192 4.05503 0.156726 4.30836 0.184601C4.56169 0.212476 4.80342 0.305734 5.00983 0.455225C6.60983 1.62123 7.71383 3.38523 8.66183 4.77223C8.87042 5.07696 8.9596 5.44777 8.91239 5.81402C8.86518 6.18027 8.68487 6.51635 8.40583 6.75823L6.45483 8.20722C6.36057 8.27529 6.29422 8.37525 6.26811 8.48855C6.24199 8.60184 6.25788 8.72076 6.31283 8.82323C6.75483 9.62622 7.54083 10.8222 8.44083 11.7222C9.34083 12.6222 10.5938 13.4602 11.4528 13.9522C11.5605 14.0127 11.6873 14.0296 11.8071 13.9995C11.9269 13.9693 12.0306 13.8944 12.0968 13.7902L13.3668 11.8572C13.6003 11.5471 13.9448 11.3393 14.328 11.2774C14.7113 11.2155 15.1036 11.3043 15.4228 11.5252C16.8298 12.4992 18.4718 13.5842 19.6738 15.1232C19.8355 15.3311 19.9383 15.5786 19.9715 15.8399C20.0048 16.1011 19.9672 16.3665 19.8628 16.6082C19.0258 18.5612 16.9078 20.2242 14.7048 20.1432Z" fill="#F44336"/>
</g>
</svg>
