<svg width="24" height="25" viewBox="0 0 24 25" fill="none" xmlns="http://www.w3.org/2000/svg">
<g id="calendar">
<g id="Icon">
<path d="M5.25 10.6C5.25 9.33988 5.25 8.70982 5.49524 8.22852C5.71095 7.80516 6.05516 7.46095 6.47852 7.24524C6.95982 7 7.58988 7 8.85 7H15.15C16.4101 7 17.0402 7 17.5215 7.24524C17.9448 7.46095 18.2891 7.80516 18.5048 8.22852C18.75 8.70982 18.75 9.33988 18.75 10.6V16.9C18.75 18.1601 18.75 18.7902 18.5048 19.2715C18.2891 19.6948 17.9448 20.039 17.5215 20.2548C17.0402 20.5 16.4101 20.5 15.15 20.5H8.85C7.58988 20.5 6.95982 20.5 6.47852 20.2548C6.05516 20.039 5.71095 19.6948 5.49524 19.2715C5.25 18.7902 5.25 18.1601 5.25 16.9V10.6Z" fill="#F25F24"/>
<path d="M18.75 11.5H5.25M15 5.5V8.5M9 5.5V8.5M8.85 20.5H15.15C16.4101 20.5 17.0402 20.5 17.5215 20.2548C17.9448 20.039 18.2891 19.6948 18.5048 19.2715C18.75 18.7902 18.75 18.1601 18.75 16.9V10.6C18.75 9.33988 18.75 8.70982 18.5048 8.22852C18.2891 7.80516 17.9448 7.46095 17.5215 7.24524C17.0402 7 16.4101 7 15.15 7H8.85C7.58988 7 6.95982 7 6.47852 7.24524C6.05516 7.46095 5.71095 7.80516 5.49524 8.22852C5.25 8.70982 5.25 9.33988 5.25 10.6V16.9C5.25 18.1601 5.25 18.7902 5.49524 19.2715C5.71095 19.6948 6.05516 20.039 6.47852 20.2548C6.95982 20.5 7.58988 20.5 8.85 20.5Z" stroke="#F25F24" stroke-width="1.5" stroke-linecap="round" stroke-linejoin="round"/>
</g>
</g>
</svg>
