<svg width="13" height="14" viewBox="0 0 13 14" fill="none" xmlns="http://www.w3.org/2000/svg">
<g id="Vector">
<path id="Vector-14" fill-rule="evenodd" clip-rule="evenodd" d="M10.3553 0.853035L11.9762 2.1722C12.1327 2.32469 12.2204 2.53429 12.2191 2.75279C12.2179 2.97128 12.1278 3.17986 11.9695 3.33054L10.7378 4.83054L6.54618 9.9447C6.47361 10.0302 6.37591 10.0905 6.26701 10.1172L4.09368 10.6172C3.80531 10.6291 3.55662 10.4164 3.52368 10.1297L3.62535 7.98554C3.63288 7.87606 3.67622 7.77211 3.74868 7.6897L7.75951 2.8022L9.17201 1.07887C9.44645 0.705315 9.96263 0.606806 10.3553 0.853035Z" stroke="black" stroke-linecap="round" stroke-linejoin="round"/>
<path id="Vector-15" d="M0.55127 12.7101C0.275127 12.7101 0.0512695 12.9339 0.0512695 13.2101C0.0512695 13.4862 0.275127 13.7101 0.55127 13.7101V12.7101ZM11.9679 13.7101C12.2441 13.7101 12.4679 13.4862 12.4679 13.2101C12.4679 12.9339 12.2441 12.7101 11.9679 12.7101V13.7101ZM8.22326 2.61461C8.1199 2.35854 7.82853 2.23474 7.57246 2.3381C7.31639 2.44146 7.19259 2.73283 7.29595 2.9889L8.22326 2.61461ZM10.8481 5.3203C11.1175 5.25945 11.2865 4.99177 11.2256 4.72241C11.1648 4.45306 10.8971 4.28403 10.6278 4.34488L10.8481 5.3203ZM0.55127 13.7101H11.9679V12.7101H0.55127V13.7101ZM7.29595 2.9889C7.48438 3.45573 7.87274 4.12294 8.44807 4.63456C9.03218 5.15398 9.85235 5.54525 10.8481 5.3203L10.6278 4.34488C10.041 4.47743 9.53869 4.2662 9.11259 3.88729C8.67771 3.50057 8.36816 2.97362 8.22326 2.61461L7.29595 2.9889Z" fill="black"/>
</g>
</svg>
