<svg width="13" height="16" viewBox="0 0 13 16" fill="none" xmlns="http://www.w3.org/2000/svg">
<g id="Vector">
<path id="Vector_2" fill-rule="evenodd" clip-rule="evenodd" d="M8.61547 15H4.38547C2.48448 14.9677 0.969283 13.401 1.00047 11.5V8C0.983141 6.42628 2.02358 5.03658 3.53847 4.61V4.15C3.48798 2.46276 4.81332 1.0533 6.50047 1C8.18763 1.0533 9.51296 2.46276 9.46247 4.15V4.61C10.9774 5.03658 12.0178 6.42628 12.0005 8V11.5C12.0317 13.401 10.5165 14.9677 8.61547 15Z" stroke="black" stroke-width="1.5" stroke-linecap="round" stroke-linejoin="round"/>
<path id="Vector-2" d="M5.75055 11.5C5.75055 11.9142 6.08634 12.25 6.50055 12.25C6.91476 12.25 7.25055 11.9142 7.25055 11.5H5.75055ZM7.25055 9.75C7.25055 9.33579 6.91476 9 6.50055 9C6.08634 9 5.75055 9.33579 5.75055 9.75H7.25055ZM9.27009 5.33489C9.67043 5.44118 10.0811 5.2028 10.1874 4.80246C10.2937 4.40212 10.0554 3.99141 9.65501 3.88512L9.27009 5.33489ZM8.61655 4.5V5.25L8.61724 5.25L8.61655 4.5ZM4.38555 4.5L4.38486 5.25H4.38555V4.5ZM3.34709 3.88512C2.94675 3.99141 2.70837 4.40212 2.81467 4.80246C2.92096 5.2028 3.33167 5.44118 3.73201 5.33489L3.34709 3.88512ZM7.25055 11.5V9.75H5.75055V11.5H7.25055ZM9.65501 3.88512C9.31597 3.7951 8.96665 3.74968 8.61586 3.75L8.61724 5.25C8.83762 5.2498 9.05709 5.27833 9.27009 5.33489L9.65501 3.88512ZM8.61655 3.75H4.38555V5.25H8.61655V3.75ZM4.38624 3.75C4.03546 3.74968 3.68613 3.7951 3.34709 3.88512L3.73201 5.33489C3.94501 5.27833 4.16448 5.2498 4.38486 5.25L4.38624 3.75Z" fill="black"/>
</g>
</svg>
