<svg width="16" height="17" viewBox="0 0 16 17" fill="none" xmlns="http://www.w3.org/2000/svg">
<path d="M7.96 13.5695C8.24 13.5695 8.4768 13.4727 8.67039 13.2791C8.864 13.0855 8.96053 12.849 8.95999 12.5695C8.95946 12.2901 8.86293 12.0533 8.67039 11.8591C8.47786 11.665 8.24106 11.5685 7.96 11.5695C7.67893 11.5706 7.4424 11.6674 7.2504 11.8599C7.0584 12.0525 6.9616 12.289 6.96 12.5695C6.9584 12.8501 7.0552 13.0869 7.2504 13.2799C7.4456 13.473 7.68213 13.5695 7.96 13.5695ZM8 16.7695C6.89333 16.7695 5.85333 16.5594 4.88 16.1391C3.90667 15.7189 3.06 15.149 2.34 14.4295C1.62 13.7101 1.05013 12.8634 0.630401 11.8895C0.210668 10.9157 0.000534346 9.87566 1.01266e-06 8.76953C-0.00053232 7.6634 0.209601 6.6234 0.630401 5.64953C1.0512 4.67566 1.62107 3.829 2.34 3.10953C3.05893 2.39006 3.9056 1.8202 4.88 1.39993C5.8544 0.979665 6.8944 0.769531 8 0.769531C9.10559 0.769531 10.1456 0.979665 11.12 1.39993C12.0944 1.8202 12.9411 2.39006 13.66 3.10953C14.3789 3.829 14.9491 4.67566 15.3704 5.64953C15.7917 6.6234 16.0016 7.6634 16 8.76953C15.9984 9.87566 15.7883 10.9157 15.3696 11.8895C14.9509 12.8634 14.3811 13.7101 13.66 14.4295C12.9389 15.149 12.0923 15.7191 11.12 16.1399C10.1477 16.5607 9.10773 16.7706 8 16.7695ZM8 15.1695C9.78666 15.1695 11.3 14.5495 12.54 13.3095C13.78 12.0695 14.4 10.5562 14.4 8.76953C14.4 6.98286 13.78 5.46953 12.54 4.22953C11.3 2.98953 9.78666 2.36953 8 2.36953C6.21333 2.36953 4.7 2.98953 3.46 4.22953C2.22 5.46953 1.6 6.98286 1.6 8.76953C1.6 10.5562 2.22 12.0695 3.46 13.3095C4.7 14.5495 6.21333 15.1695 8 15.1695ZM8.08 5.32953C8.41333 5.32953 8.70346 5.4362 8.95039 5.64953C9.19733 5.86286 9.32053 6.12953 9.31999 6.44953C9.31999 6.74286 9.23013 7.00286 9.0504 7.22953C8.87066 7.4562 8.6672 7.66953 8.44 7.86953C8.13333 8.1362 7.86346 8.42953 7.6304 8.74953C7.39733 9.06953 7.28053 9.42953 7.28 9.82953C7.28 10.0162 7.35013 10.173 7.4904 10.2999C7.63066 10.4269 7.79386 10.4901 7.98 10.4895C8.18 10.4895 8.35013 10.4229 8.4904 10.2895C8.63066 10.1562 8.72053 9.98953 8.75999 9.78953C8.81333 9.50953 8.93333 9.25966 9.11999 9.03993C9.30666 8.8202 9.50666 8.61006 9.71999 8.40953C10.0267 8.1162 10.2901 7.7962 10.5104 7.44953C10.7307 7.10286 10.8405 6.7162 10.84 6.28953C10.84 5.60953 10.5635 5.053 10.0104 4.61993C9.45733 4.18686 8.81386 3.97006 8.08 3.96953C7.57333 3.96953 7.09013 4.0762 6.6304 4.28953C6.17066 4.50286 5.82053 4.82953 5.58 5.26953C5.48666 5.42953 5.4568 5.59966 5.4904 5.77993C5.524 5.9602 5.61386 6.09673 5.76 6.18953C5.94666 6.2962 6.14 6.32953 6.34 6.28953C6.54 6.24953 6.70666 6.1362 6.84 5.94953C6.98666 5.74953 7.17013 5.5962 7.3904 5.48953C7.61066 5.38286 7.84053 5.32953 8.08 5.32953Z" fill="black"/>
</svg>
