<svg width="16" height="18" viewBox="0 0 16 18" fill="none" xmlns="http://www.w3.org/2000/svg">
<g id="Vector">
<path id="Vector-14" fill-rule="evenodd" clip-rule="evenodd" d="M5.308 1.50001H10.829C10.8863 1.50001 10.9433 1.50367 11 1.51101C13.2473 1.66817 14.9924 3.5332 15 5.78601V12.215C14.9917 14.5871 13.0641 16.5044 10.692 16.5H5.308C2.93551 16.5044 1.00772 14.5865 1 12.214V5.78601C1.00772 3.41353 2.93551 1.49558 5.308 1.50001Z" fill="#F25F24" stroke="#F25F24" stroke-width="1.5" stroke-linecap="round" stroke-linejoin="round"/>
<g id="Vector-15">
<path fill-rule="evenodd" clip-rule="evenodd" d="M15 5.78574H11V1.51074M10 9.49974H4H10ZM7 6.49974H4H7ZM11 12.4997H4H11Z" fill="white"/>
<path d="M15 6.53574C15.4142 6.53574 15.75 6.19996 15.75 5.78574C15.75 5.37153 15.4142 5.03574 15 5.03574V6.53574ZM11 5.78574H10.25C10.25 6.19996 10.5858 6.53574 11 6.53574V5.78574ZM11.75 1.51074C11.75 1.09653 11.4142 0.760742 11 0.760742C10.5858 0.760742 10.25 1.09653 10.25 1.51074H11.75ZM10 10.2497C10.4142 10.2497 10.75 9.91396 10.75 9.49974C10.75 9.08553 10.4142 8.74974 10 8.74974V10.2497ZM4 8.74974C3.58579 8.74974 3.25 9.08553 3.25 9.49974C3.25 9.91396 3.58579 10.2497 4 10.2497V8.74974ZM7 7.24974C7.41421 7.24974 7.75 6.91396 7.75 6.49974C7.75 6.08553 7.41421 5.74974 7 5.74974V7.24974ZM4 5.74974C3.58579 5.74974 3.25 6.08553 3.25 6.49974C3.25 6.91396 3.58579 7.24974 4 7.24974V5.74974ZM11 13.2497C11.4142 13.2497 11.75 12.914 11.75 12.4997C11.75 12.0855 11.4142 11.7497 11 11.7497V13.2497ZM4 11.7497C3.58579 11.7497 3.25 12.0855 3.25 12.4997C3.25 12.914 3.58579 13.2497 4 13.2497V11.7497ZM15 5.78574V5.03574H11V5.78574V6.53574H15V5.78574ZM11 5.78574H11.75V1.51074H11H10.25V5.78574H11ZM10 9.49974V8.74974H4V9.49974V10.2497H10V9.49974ZM7 6.49974V5.74974H4V6.49974V7.24974H7V6.49974ZM11 12.4997V11.7497H4V12.4997V13.2497H11V12.4997Z" fill="white"/>
</g>
</g>
</svg>
