<svg width="32" height="33" viewBox="0 0 32 33" fill="none" xmlns="http://www.w3.org/2000/svg">
<g id="bxs:file-pdf">
<path id="Vector" d="M11.0226 20.0732C10.7773 20.0732 10.6119 20.0972 10.5266 20.1212V21.6919C10.6279 21.7159 10.7546 21.7226 10.9293 21.7226C11.5679 21.7226 11.9613 21.3999 11.9613 20.8546C11.9613 20.3666 11.6226 20.0732 11.0226 20.0732ZM15.6719 20.0892C15.4053 20.0892 15.2319 20.1132 15.1293 20.1372V23.6172C15.2319 23.6412 15.3973 23.6412 15.5466 23.6412C16.6359 23.6492 17.3453 23.0492 17.3453 21.7799C17.3533 20.6732 16.7066 20.0892 15.6719 20.0892Z" fill="#EF5350"/>
<path id="Vector_2" d="M18.6666 3.16699H7.99992C7.29267 3.16699 6.6144 3.44794 6.1143 3.94804C5.6142 4.44814 5.33325 5.12641 5.33325 5.83366V27.167C5.33325 27.8742 5.6142 28.5525 6.1143 29.0526C6.6144 29.5527 7.29267 29.8337 7.99992 29.8337H23.9999C24.7072 29.8337 25.3854 29.5527 25.8855 29.0526C26.3856 28.5525 26.6666 27.8742 26.6666 27.167V11.167L18.6666 3.16699ZM12.6639 22.087C12.2519 22.4737 11.6439 22.647 10.9359 22.647C10.7986 22.6496 10.6613 22.6416 10.5253 22.623V24.5243H9.33325V19.2763C9.87122 19.1963 10.4148 19.1598 10.9586 19.167C11.7013 19.167 12.2293 19.3083 12.5853 19.5923C12.9239 19.8617 13.1533 20.303 13.1533 20.823C13.1519 21.3457 12.9786 21.787 12.6639 22.087ZM17.7399 23.8937C17.1799 24.359 16.3279 24.5803 15.2866 24.5803C14.6626 24.5803 14.2213 24.5403 13.9213 24.5003V19.2777C14.4594 19.1994 15.0028 19.1624 15.5466 19.167C16.5559 19.167 17.2119 19.3483 17.7239 19.735C18.2773 20.1457 18.6239 20.8003 18.6239 21.7403C18.6239 22.7577 18.2519 23.4603 17.7399 23.8937ZM22.6666 20.1937H20.6239V21.4083H22.5333V22.387H20.6239V24.5257H19.4159V19.207H22.6666V20.1937ZM18.6666 12.5003H17.3333V5.83366L23.9999 12.5003H18.6666Z" fill="#EF5350"/>
</g>
</svg>
