<svg width="16" height="12" viewBox="0 0 16 12" fill="none" xmlns="http://www.w3.org/2000/svg">
<g id="Vector">
<path id="Vector-10" fill-rule="evenodd" clip-rule="evenodd" d="M3.0546 3.1605C3.63135 1.734 4.3251 0.75 5.8956 0.75H10.1053C11.6743 0.75 12.3688 1.734 12.9463 3.1605L13.5231 4.68675C13.9528 4.69192 14.3476 4.92456 14.5603 5.298C14.6855 5.51071 14.751 5.75321 14.7501 6V7.968C14.7557 8.42752 14.5237 8.85738 14.1366 9.105C13.9525 9.21965 13.74 9.28045 13.5231 9.2805H2.4771C2.26022 9.28045 2.04769 9.21965 1.8636 9.105C1.47646 8.85738 1.24452 8.42752 1.2501 7.968V6C1.24929 5.75346 1.31483 5.51124 1.43985 5.29875C1.65257 4.92531 2.04736 4.69267 2.4771 4.6875L3.0546 3.1605Z" stroke="#0C4CA6" stroke-width="1.5" stroke-linecap="round" stroke-linejoin="round"/>
<path id="Vector-11" d="M4.45481 9.28102C4.45481 8.86681 4.11903 8.53102 3.70481 8.53102C3.2906 8.53102 2.95481 8.86681 2.95481 9.28102H4.45481ZM3.70481 10.2658H2.95481C2.95481 10.2738 2.95494 10.2818 2.9552 10.2898L3.70481 10.2658ZM2.78381 11.2498L2.75768 11.9993C2.77491 11.9999 2.79215 11.9999 2.80937 11.9993L2.78381 11.2498ZM1.86356 10.265L2.61316 10.2897C2.61343 10.2814 2.61356 10.2732 2.61356 10.265H1.86356ZM2.61356 9.10477C2.61356 8.69056 2.27778 8.35477 1.86356 8.35477C1.44935 8.35477 1.11356 8.69056 1.11356 9.10477H2.61356ZM2.47706 3.93652C2.06285 3.93652 1.72706 4.27231 1.72706 4.68652C1.72706 5.10074 2.06285 5.43652 2.47706 5.43652V3.93652ZM13.5231 5.43652C13.9373 5.43652 14.2731 5.10074 14.2731 4.68652C14.2731 4.27231 13.9373 3.93652 13.5231 3.93652V5.43652ZM13.0461 9.28027C13.0461 8.86606 12.7103 8.53027 12.2961 8.53027C11.8818 8.53027 11.5461 8.86606 11.5461 9.28027H13.0461ZM12.2961 10.265L13.0445 10.3128C13.0456 10.2969 13.0461 10.281 13.0461 10.265H12.2961ZM12.7386 11.1127L13.1273 10.4713L12.7386 11.1127ZM13.6948 11.1127L13.3061 10.4713L13.6948 11.1127ZM14.1373 10.265H13.3873C13.3873 10.281 13.3878 10.2969 13.3888 10.3128L14.1373 10.265ZM14.8873 9.10477C14.8873 8.69056 14.5515 8.35477 14.1373 8.35477C13.7231 8.35477 13.3873 8.69056 13.3873 9.10477H14.8873ZM3.50006 6.37477C3.08585 6.37477 2.75006 6.71056 2.75006 7.12477C2.75006 7.53899 3.08585 7.87477 3.50006 7.87477V6.37477ZM4.25006 7.87477C4.66428 7.87477 5.00006 7.53899 5.00006 7.12477C5.00006 6.71056 4.66428 6.37477 4.25006 6.37477V7.87477ZM11.7501 6.37477C11.3358 6.37477 11.0001 6.71056 11.0001 7.12477C11.0001 7.53899 11.3358 7.87477 11.7501 7.87477V6.37477ZM12.5001 7.87477C12.9143 7.87477 13.2501 7.53899 13.2501 7.12477C13.2501 6.71056 12.9143 6.37477 12.5001 6.37477V7.87477ZM3.70481 9.28102H2.95481V10.2658H3.70481H4.45481V9.28102H3.70481ZM3.70481 10.2658L2.9552 10.2898C2.9588 10.4022 2.87069 10.4964 2.75825 10.5002L2.78381 11.2498L2.80937 11.9993C3.74855 11.9673 4.48452 11.181 4.45443 10.2418L3.70481 10.2658ZM2.78381 11.2498L2.80994 10.5002C2.6975 10.4963 2.60946 10.4021 2.61316 10.2897L1.86356 10.265L1.11397 10.2404C1.0831 11.1796 1.81849 11.9666 2.75768 11.9993L2.78381 11.2498ZM1.86356 10.265H2.61356V9.10477H1.86356H1.11356V10.265H1.86356ZM2.47706 4.68652V5.43652H13.5231V4.68652V3.93652H2.47706V4.68652ZM12.2961 9.28027H11.5461V10.265H12.2961H13.0461V9.28027H12.2961ZM12.2961 10.265L11.5476 10.2172C11.5079 10.839 11.817 11.4312 12.3498 11.7541L12.7386 11.1127L13.1273 10.4713C13.0723 10.438 13.0404 10.3769 13.0445 10.3128L12.2961 10.265ZM12.7386 11.1127L12.3498 11.7541C12.8826 12.077 13.5507 12.077 14.0835 11.7541L13.6948 11.1127L13.3061 10.4713C13.2511 10.5046 13.1822 10.5046 13.1273 10.4713L12.7386 11.1127ZM13.6948 11.1127L14.0835 11.7541C14.6163 11.4312 14.9255 10.839 14.8858 10.2172L14.1373 10.265L13.3888 10.3128C13.3929 10.3769 13.361 10.438 13.3061 10.4713L13.6948 11.1127ZM14.1373 10.265H14.8873V9.10477H14.1373H13.3873V10.265H14.1373ZM3.50006 7.12477V7.87477H4.25006V7.12477V6.37477H3.50006V7.12477ZM11.7501 7.12477V7.87477H12.5001V7.12477V6.37477H11.7501V7.12477Z" fill="#0C4CA6"/>
</g>
</svg>
