<svg width="11" height="10" viewBox="0 0 11 10" fill="none" xmlns="http://www.w3.org/2000/svg">
<g id="streamline:like-1-solid" clip-path="url(#clip0_611_1891)">
<path id="Vector" fill-rule="evenodd" clip-rule="evenodd" d="M3.47141 9.25747C3.71142 9.37208 3.97401 9.43163 4.23998 9.43176H8.05855C8.48437 9.43176 8.89616 9.27959 9.21967 9.00271C9.54317 8.72584 9.75709 8.34247 9.82284 7.92176L10.27 5.06248C10.302 4.85863 10.2894 4.65028 10.2332 4.45175C10.1769 4.25322 10.0784 4.06923 9.94425 3.91243C9.81013 3.75563 9.64363 3.62975 9.45621 3.54344C9.26878 3.45714 9.06489 3.41246 8.85855 3.41248H6.51427V1.72962C6.5146 1.47252 6.42957 1.22259 6.27252 1.01905C6.11547 0.815498 5.89528 0.669852 5.64651 0.604963C5.39774 0.540073 5.13447 0.559613 4.898 0.660515C4.66154 0.761418 4.46526 0.937973 4.33998 1.16248L2.85641 3.81247C2.76689 3.97245 2.71992 4.15273 2.71998 4.33605V8.22319C2.71995 8.42555 2.77722 8.62378 2.88518 8.79494C2.99313 8.96609 3.14735 9.10318 3.32998 9.19033L3.47284 9.25819L3.47141 9.25747ZM1.06712 3.94319C0.973637 3.9431 0.881049 3.96143 0.794652 3.99714C0.708255 4.03285 0.629743 4.08524 0.563606 4.15131C0.497468 4.21738 0.445 4.29584 0.409203 4.3822C0.373406 4.46856 0.35498 4.56113 0.35498 4.65462V8.30605C0.35498 8.49492 0.43001 8.67605 0.563562 8.80961C0.697115 8.94316 0.878251 9.01819 1.06712 9.01819H1.42141C1.51613 9.01819 1.60697 8.98056 1.67395 8.91358C1.74092 8.84661 1.77855 8.75577 1.77855 8.66105V4.29962C1.77855 4.2049 1.74092 4.11406 1.67395 4.04708C1.60697 3.9801 1.51613 3.94248 1.42141 3.94248L1.06712 3.94319Z" fill="#F25F24"/>
</g>
<defs>
<clipPath id="clip0_611_1891">
<rect width="10" height="10" fill="white" transform="translate(0.321289)"/>
</clipPath>
</defs>
</svg>
