<svg width="12" height="12" viewBox="0 0 12 12" fill="none" xmlns="http://www.w3.org/2000/svg">
<g id="Vector">
<path id="Vector-22" fill-rule="evenodd" clip-rule="evenodd" d="M11.2495 6.00049C11.2495 8.89998 8.89901 11.2505 5.99951 11.2505C5.99951 8.76499 6.74951 5.62549 10.4995 5.25049H11.1963C11.2318 5.49891 11.2496 5.74954 11.2495 6.00049V6.00049Z" stroke="#0C4CA6" stroke-width="1.5" stroke-linecap="round" stroke-linejoin="round"/>
<path id="Vector-23" d="M1.57413 4.50404C1.16197 4.46283 0.794437 4.76354 0.753221 5.17569C0.712006 5.58785 1.01271 5.95538 1.42487 5.9966L1.57413 4.50404ZM5.9995 11.2503L5.99941 12.0003C6.19834 12.0003 6.38913 11.9213 6.5298 11.7807C6.67047 11.64 6.7495 11.4492 6.7495 11.2503H5.9995ZM0.75607 6.25069L0.0069235 6.28645L0.75607 6.25069ZM5.49934 0.774257L5.42781 0.0276765L5.49934 0.774257ZM10.4539 5.35746C10.5131 5.76743 10.8934 6.0518 11.3034 5.99263C11.7134 5.93346 11.9977 5.55314 11.9386 5.14318L10.4539 5.35746ZM1.4995 6.00032C1.91371 6.00032 2.2495 5.66454 2.2495 5.25032C2.2495 4.83611 1.91371 4.50032 1.4995 4.50032V6.00032ZM0.802749 4.50032C0.388536 4.50032 0.0527495 4.83611 0.0527495 5.25032C0.0527495 5.66454 0.388536 6.00032 0.802749 6.00032V4.50032ZM1.4995 4.50032C1.08529 4.50032 0.749499 4.83611 0.749499 5.25032C0.749499 5.66454 1.08529 6.00032 1.4995 6.00032V4.50032ZM10.4995 6.00032C10.9137 6.00032 11.2495 5.66454 11.2495 5.25032C11.2495 4.83611 10.9137 4.50032 10.4995 4.50032V6.00032ZM1.4995 5.25032L1.42487 5.9966C3.06041 6.16015 3.97036 6.90102 4.50541 7.83246C5.06702 8.81014 5.2495 10.0635 5.2495 11.2503H5.9995H6.7495C6.7495 9.95169 6.55698 8.3925 5.80609 7.08531C5.02863 5.73187 3.68859 4.71549 1.57413 4.50404L1.4995 5.25032ZM5.9995 11.2503L5.99958 10.5003C3.59793 10.5 1.61975 8.61384 1.50522 6.21492L0.75607 6.25069L0.0069235 6.28645C0.159632 9.48501 2.79721 12 5.99941 12.0003L5.9995 11.2503ZM0.75607 6.25069L1.50522 6.21492C1.39069 3.816 3.18017 1.74991 5.57088 1.52084L5.49934 0.774257L5.42781 0.0276765C2.2402 0.333109 -0.145785 3.08789 0.0069235 6.28645L0.75607 6.25069ZM5.49934 0.774257L5.57088 1.52084C7.96158 1.29176 10.1108 2.98044 10.4539 5.35746L11.1962 5.25032L11.9386 5.14318C11.4811 1.97382 8.61541 -0.277756 5.42781 0.0276765L5.49934 0.774257ZM1.4995 5.25032V4.50032H0.802749V5.25032V6.00032H1.4995V5.25032ZM1.4995 5.25032V6.00032H10.4995V5.25032V4.50032H1.4995V5.25032Z" fill="#0C4CA6"/>
</g>
</svg>
