<svg width="20" height="22" viewBox="0 0 20 22" fill="none" xmlns="http://www.w3.org/2000/svg">
<g id="Group">
<path id="Vector" fill-rule="evenodd" clip-rule="evenodd" d="M9.23739 21.2682L9.24839 21.2702L9.3194 21.3052L9.33939 21.3092L9.35339 21.3052L9.42439 21.2702C9.43506 21.2669 9.44306 21.2685 9.44839 21.2752L9.45239 21.2852L9.46939 21.7132L9.46439 21.7332L9.45439 21.7462L9.3504 21.8202L9.33539 21.8242L9.32339 21.8202L9.21939 21.7462L9.20739 21.7302L9.20339 21.7132L9.2204 21.2862C9.22306 21.2755 9.22873 21.2695 9.23739 21.2682ZM8.97239 21.1552L8.98539 21.1572L9.17039 21.2502L9.1804 21.2602L9.18339 21.2712L9.16539 21.7012L9.16039 21.7132L9.15239 21.7202L8.9514 21.8132C8.93873 21.8165 8.92906 21.8139 8.92239 21.8052L8.9184 21.7912L8.95239 21.1772C8.95573 21.1652 8.96239 21.1579 8.97239 21.1552ZM9.6874 21.1572C9.6918 21.1545 9.69707 21.1537 9.7021 21.1548C9.70713 21.1559 9.71153 21.1589 9.71439 21.1632L9.7204 21.1772L9.75439 21.7912C9.75373 21.8032 9.74806 21.8112 9.73739 21.8152L9.72239 21.8132L9.52139 21.7202L9.51139 21.7122L9.50739 21.7012L9.49039 21.2712L9.49339 21.2592L9.5034 21.2492L9.6874 21.1572Z" fill="white"/>
<path id="Vector_2" fill-rule="evenodd" clip-rule="evenodd" d="M5.27857 20.1432C6.71857 20.0902 10.7996 19.5262 15.0736 15.2532C19.3466 10.9792 19.9096 6.89923 19.9636 5.45823C20.0436 3.26223 18.3616 1.12923 16.4186 0.296225C16.1846 0.195192 15.9284 0.156726 15.675 0.184601C15.4217 0.212476 15.18 0.305734 14.9736 0.455225C13.3736 1.62123 12.2696 3.38523 11.3216 4.77223C11.113 5.07696 11.0238 5.44777 11.071 5.81402C11.1182 6.18027 11.2985 6.51635 11.5776 6.75823L13.5286 8.20722C13.6228 8.27529 13.6892 8.37525 13.7153 8.48855C13.7414 8.60184 13.7255 8.72076 13.6706 8.82323C13.2286 9.62622 12.4426 10.8222 11.5426 11.7222C10.6426 12.6222 9.38957 13.4602 8.53057 13.9522C8.42286 14.0127 8.29609 14.0296 8.17631 13.9995C8.05653 13.9693 7.95284 13.8944 7.88657 13.7902L6.61657 11.8572C6.38308 11.5471 6.03864 11.3393 5.65539 11.2774C5.27214 11.2155 4.87981 11.3043 4.56057 11.5252C3.15357 12.4992 1.51157 13.5842 0.309566 15.1232C0.147938 15.3311 0.045126 15.5786 0.011879 15.8399C-0.021368 16.1011 0.0161686 16.3665 0.120567 16.6082C0.957567 18.5612 3.07557 20.2242 5.27857 20.1432Z" fill="white"/>
</g>
</svg>
