<svg width="24" height="24" viewBox="0 0 24 24" fill="none" xmlns="http://www.w3.org/2000/svg">
<g id="material-symbols:help-outline-rounded">
<path id="Vector" d="M11.96 16.8C12.24 16.8 12.4768 16.7032 12.6704 16.5096C12.864 16.316 12.9605 16.0795 12.96 15.8C12.9595 15.5205 12.8629 15.2837 12.6704 15.0896C12.4779 14.8955 12.2411 14.7989 11.96 14.8C11.6789 14.8011 11.4424 14.8979 11.2504 15.0904C11.0584 15.2829 10.9616 15.5195 10.96 15.8C10.9584 16.0805 11.0552 16.3173 11.2504 16.5104C11.4456 16.7035 11.6821 16.8 11.96 16.8ZM12 20C10.8933 20 9.85333 19.7899 8.88 19.3696C7.90667 18.9493 7.06 18.3795 6.34 17.66C5.62 16.9405 5.05013 16.0939 4.6304 15.12C4.21067 14.1461 4.00053 13.1061 4 12C3.99947 10.8939 4.2096 9.85387 4.6304 8.88C5.0512 7.90613 5.62107 7.05947 6.34 6.34C7.05893 5.62053 7.9056 5.05067 8.88 4.6304C9.8544 4.21013 10.8944 4 12 4C13.1056 4 14.1456 4.21013 15.12 4.6304C16.0944 5.05067 16.9411 5.62053 17.66 6.34C18.3789 7.05947 18.9491 7.90613 19.3704 8.88C19.7917 9.85387 20.0016 10.8939 20 12C19.9984 13.1061 19.7883 14.1461 19.3696 15.12C18.9509 16.0939 18.3811 16.9405 17.66 17.66C16.9389 18.3795 16.0923 18.9496 15.12 19.3704C14.1477 19.7912 13.1077 20.0011 12 20ZM12 18.4C13.7867 18.4 15.3 17.78 16.54 16.54C17.78 15.3 18.4 13.7867 18.4 12C18.4 10.2133 17.78 8.7 16.54 7.46C15.3 6.22 13.7867 5.6 12 5.6C10.2133 5.6 8.7 6.22 7.46 7.46C6.22 8.7 5.6 10.2133 5.6 12C5.6 13.7867 6.22 15.3 7.46 16.54C8.7 17.78 10.2133 18.4 12 18.4ZM12.08 8.56C12.4133 8.56 12.7035 8.66667 12.9504 8.88C13.1973 9.09333 13.3205 9.36 13.32 9.68C13.32 9.97333 13.2301 10.2333 13.0504 10.46C12.8707 10.6867 12.6672 10.9 12.44 11.1C12.1333 11.3667 11.8635 11.66 11.6304 11.98C11.3973 12.3 11.2805 12.66 11.28 13.06C11.28 13.2467 11.3501 13.4035 11.4904 13.5304C11.6307 13.6573 11.7939 13.7205 11.98 13.72C12.18 13.72 12.3501 13.6533 12.4904 13.52C12.6307 13.3867 12.7205 13.22 12.76 13.02C12.8133 12.74 12.9333 12.4901 13.12 12.2704C13.3067 12.0507 13.5067 11.8405 13.72 11.64C14.0267 11.3467 14.2901 11.0267 14.5104 10.68C14.7307 10.3333 14.8405 9.94666 14.84 9.52C14.84 8.84 14.5635 8.28347 14.0104 7.8504C13.4573 7.41733 12.8139 7.20053 12.08 7.2C11.5733 7.2 11.0901 7.30667 10.6304 7.52C10.1707 7.73333 9.82053 8.06 9.58 8.5C9.48666 8.66 9.4568 8.83013 9.4904 9.0104C9.524 9.19066 9.61386 9.3272 9.76 9.42C9.94666 9.52666 10.14 9.56 10.34 9.52C10.54 9.48 10.7067 9.36667 10.84 9.18C10.9867 8.98 11.1701 8.82667 11.3904 8.72C11.6107 8.61333 11.8405 8.56 12.08 8.56Z" fill="black"/>
</g>
</svg>
