<svg width="16" height="18" viewBox="0 0 16 18" fill="none" xmlns="http://www.w3.org/2000/svg">
<path fill-rule="evenodd" clip-rule="evenodd" d="M5.308 1.50001H10.829C10.8863 1.50001 10.9433 1.50367 11 1.51101C13.2473 1.66817 14.9924 3.5332 15 5.78601V12.215C14.9917 14.5871 13.0641 16.5044 10.692 16.5H5.308C2.93551 16.5044 1.00772 14.5865 1 12.214V5.78601C1.00772 3.41353 2.93551 1.49558 5.308 1.50001Z" fill="#F25F24" stroke="#F25F24" stroke-width="1.5" stroke-linecap="round" stroke-linejoin="round"/>
<path fill-rule="evenodd" clip-rule="evenodd" d="M15 5.78672H11V1.51172M10 9.50072H4H10ZM7 6.50072H4H7ZM11 12.5007H4H11Z" fill="white"/>
<path d="M15 6.53672C15.4142 6.53672 15.75 6.20093 15.75 5.78672C15.75 5.37251 15.4142 5.03672 15 5.03672V6.53672ZM11 5.78672H10.25C10.25 6.20093 10.5858 6.53672 11 6.53672V5.78672ZM11.75 1.51172C11.75 1.09751 11.4142 0.761719 11 0.761719C10.5858 0.761719 10.25 1.09751 10.25 1.51172H11.75ZM10 10.2507C10.4142 10.2507 10.75 9.91493 10.75 9.50072C10.75 9.0865 10.4142 8.75072 10 8.75072V10.2507ZM4 8.75072C3.58579 8.75072 3.25 9.0865 3.25 9.50072C3.25 9.91493 3.58579 10.2507 4 10.2507V8.75072ZM7 7.25072C7.41421 7.25072 7.75 6.91493 7.75 6.50072C7.75 6.0865 7.41421 5.75072 7 5.75072V7.25072ZM4 5.75072C3.58579 5.75072 3.25 6.0865 3.25 6.50072C3.25 6.91493 3.58579 7.25072 4 7.25072V5.75072ZM11 13.2507C11.4142 13.2507 11.75 12.9149 11.75 12.5007C11.75 12.0865 11.4142 11.7507 11 11.7507V13.2507ZM4 11.7507C3.58579 11.7507 3.25 12.0865 3.25 12.5007C3.25 12.9149 3.58579 13.2507 4 13.2507V11.7507ZM15 5.78672V5.03672H11V5.78672V6.53672H15V5.78672ZM11 5.78672H11.75V1.51172H11H10.25V5.78672H11ZM10 9.50072V8.75072H4V9.50072V10.2507H10V9.50072ZM7 6.50072V5.75072H4V6.50072V7.25072H7V6.50072ZM11 12.5007V11.7507H4V12.5007V13.2507H11V12.5007Z" fill="white"/>
</svg>
