<svg width="18" height="13" viewBox="0 0 18 13" fill="none" xmlns="http://www.w3.org/2000/svg">
<g id="Vector">
<path id="Vector-12" fill-rule="evenodd" clip-rule="evenodd" d="M6.7037 9.61927C6.70613 10.2817 6.30895 10.8803 5.69763 11.1355C5.08631 11.3907 4.38144 11.2521 3.91216 10.7846C3.44288 10.317 3.30176 9.61266 3.55471 9.0004C3.80765 8.38815 4.40475 7.98878 5.0672 7.98877C5.50043 7.98798 5.91624 8.15931 6.22314 8.46509C6.53004 8.77087 6.70291 9.18604 6.7037 9.61927Z" stroke="#0C4CA6" stroke-width="1.5" stroke-linecap="round" stroke-linejoin="round"/>
<path id="Vector-13" fill-rule="evenodd" clip-rule="evenodd" d="M14.7413 9.61927C14.7437 10.2817 14.3466 10.8803 13.7352 11.1355C13.1239 11.3907 12.419 11.2521 11.9498 10.7846C11.4805 10.317 11.3394 9.61266 11.5923 9.0004C11.8452 8.38815 12.4424 7.98878 13.1048 7.98877C13.538 7.98798 13.9538 8.15931 14.2607 8.46509C14.5676 8.77087 14.7405 9.18604 14.7413 9.61927Z" stroke="#0C4CA6" stroke-width="1.5" stroke-linecap="round" stroke-linejoin="round"/>
<path id="Vector-14" d="M1.84815 4.42235C1.70213 4.80997 1.89798 5.24258 2.2856 5.3886C2.67322 5.53462 3.10583 5.33877 3.25185 4.95115L1.84815 4.42235ZM3.12525 3.15975L2.42973 2.87913C2.42756 2.88451 2.42545 2.88992 2.4234 2.89535L3.12525 3.15975ZM7.536 1.5C7.95021 1.5 8.286 1.16421 8.286 0.75C8.286 0.335786 7.95021 0 7.536 0V1.5ZM2.55 5.43675C2.96421 5.43675 3.3 5.10096 3.3 4.68675C3.3 4.27254 2.96421 3.93675 2.55 3.93675V5.43675ZM1.56825 4.68675L1.56269 5.43675H1.56825V4.68675ZM0.992139 4.9204L1.51854 5.45464H1.51854L0.992139 4.9204ZM0.75 5.493L0 5.48748V5.493H0.75ZM0 6.75C0 7.16421 0.335786 7.5 0.75 7.5C1.16421 7.5 1.5 7.16421 1.5 6.75H0ZM2.55 3.93675C2.13579 3.93675 1.8 4.27254 1.8 4.68675C1.8 5.10096 2.13579 5.43675 2.55 5.43675V3.93675ZM7.536 5.43675C7.95021 5.43675 8.286 5.10096 8.286 4.68675C8.286 4.27254 7.95021 3.93675 7.536 3.93675V5.43675ZM13.3194 4.95115C13.4654 5.33877 13.898 5.53462 14.2857 5.3886C14.6733 5.24258 14.8691 4.80997 14.7231 4.42235L13.3194 4.95115ZM13.446 3.15975L14.1478 2.89535C14.1458 2.88992 14.1437 2.88451 14.1415 2.87913L13.446 3.15975ZM7.536 0C7.12179 0 6.786 0.335786 6.786 0.75C6.786 1.16421 7.12179 1.5 7.536 1.5V0ZM14.0213 5.43675C14.4355 5.43675 14.7713 5.10096 14.7713 4.68675C14.7713 4.27254 14.4355 3.93675 14.0213 3.93675V5.43675ZM7.536 3.93675C7.12179 3.93675 6.786 4.27254 6.786 4.68675C6.786 5.10096 7.12179 5.43675 7.536 5.43675V3.93675ZM14.0212 3.93675C13.607 3.93675 13.2712 4.27254 13.2712 4.68675C13.2712 5.10096 13.607 5.43675 14.0212 5.43675V3.93675ZM16.4325 4.68675V5.43677L16.4374 5.43673L16.4325 4.68675ZM17.25 5.493H18L18 5.48748L17.25 5.493ZM16.5 6.75C16.5 7.16421 16.8358 7.5 17.25 7.5C17.6642 7.5 18 7.16421 18 6.75H16.5ZM11.4683 10.3695C11.8825 10.3695 12.2183 10.0337 12.2183 9.6195C12.2183 9.20529 11.8825 8.8695 11.4683 8.8695V10.3695ZM6.7035 8.8695C6.28929 8.8695 5.9535 9.20529 5.9535 9.6195C5.9535 10.0337 6.28929 10.3695 6.7035 10.3695V8.8695ZM14.7413 8.8695C14.327 8.8695 13.9913 9.20529 13.9913 9.6195C13.9913 10.0337 14.327 10.3695 14.7413 10.3695V8.8695ZM16.4318 9.6195L16.4373 8.8695H16.4318V9.6195ZM17.0079 9.38585L16.4815 8.85161L16.4815 8.85161L17.0079 9.38585ZM17.25 8.81325L18 8.81877V8.81325H17.25ZM18 6.75C18 6.33579 17.6642 6 17.25 6C16.8358 6 16.5 6.33579 16.5 6.75H18ZM3.4305 10.3695C3.84471 10.3695 4.1805 10.0337 4.1805 9.6195C4.1805 9.20529 3.84471 8.8695 3.4305 8.8695V10.3695ZM1.56825 9.6195V8.86948L1.56269 8.86952L1.56825 9.6195ZM0.75 8.81325H-2.03252e-05L2.03252e-05 8.81877L0.75 8.81325ZM1.5 6.75C1.5 6.33579 1.16421 6 0.75 6C0.335786 6 0 6.33579 0 6.75H1.5ZM8.286 0.75C8.286 0.335786 7.95021 0 7.536 0C7.12179 0 6.786 0.335786 6.786 0.75H8.286ZM6.786 4.68675C6.786 5.10096 7.12179 5.43675 7.536 5.43675C7.95021 5.43675 8.286 5.10096 8.286 4.68675H6.786ZM0.75 6C0.335786 6 0 6.33579 0 6.75C0 7.16421 0.335786 7.5 0.75 7.5V6ZM2.24475 7.5C2.65896 7.5 2.99475 7.16421 2.99475 6.75C2.99475 6.33579 2.65896 6 2.24475 6V7.5ZM17.25 7.5C17.6642 7.5 18 7.16421 18 6.75C18 6.33579 17.6642 6 17.25 6V7.5ZM15.6923 6C15.278 6 14.9423 6.33579 14.9423 6.75C14.9423 7.16421 15.278 7.5 15.6923 7.5V6ZM2.55 4.68675L3.25185 4.95115L3.8271 3.42415L3.12525 3.15975L2.4234 2.89535L1.84815 4.42235L2.55 4.68675ZM3.12525 3.15975L3.82077 3.44037C4.0986 2.75177 4.36771 2.27126 4.69044 1.96035C4.98219 1.67929 5.35569 1.5 5.95575 1.5V0.75V0C4.99281 0 4.23869 0.312714 3.64975 0.880091C3.09179 1.41762 2.72715 2.14198 2.42973 2.87913L3.12525 3.15975ZM5.95575 0.75V1.5H7.536V0.75V0H5.95575V0.75ZM2.55 4.68675V3.93675H1.56825V4.68675V5.43675H2.55V4.68675ZM1.56825 4.68675L1.57381 3.93677C1.15947 3.9337 0.760886 4.09535 0.46574 4.38617L0.992139 4.9204L1.51854 5.45464C1.5303 5.44305 1.54618 5.43661 1.56269 5.43673L1.56825 4.68675ZM0.992139 4.9204L0.465741 4.38617C0.170595 4.67699 0.0030697 5.07314 2.03252e-05 5.48748L0.75 5.493L1.49998 5.49852C1.5001 5.48201 1.50678 5.46622 1.51854 5.45464L0.992139 4.9204ZM0.75 5.493H0V6.75H0.75H1.5V5.493H0.75ZM2.55 4.68675V5.43675H7.536V4.68675V3.93675H2.55V4.68675ZM14.0213 4.68675L14.7231 4.42235L14.1478 2.89535L13.446 3.15975L12.7442 3.42415L13.3194 4.95115L14.0213 4.68675ZM13.446 3.15975L14.1415 2.87913C13.8441 2.14198 13.4795 1.41762 12.9215 0.880091C12.3326 0.312713 11.5784 0 10.6155 0V0.75V1.5C11.2156 1.5 11.5891 1.67929 11.8808 1.96035C12.2035 2.27126 12.4726 2.75177 12.7505 3.44037L13.446 3.15975ZM10.6155 0.75V0H7.536V0.75V1.5H10.6155V0.75ZM14.0213 4.68675V3.93675H7.536V4.68675V5.43675H14.0213V4.68675ZM14.0212 4.68675V5.43675H16.4325V4.68675V3.93675H14.0212V4.68675ZM16.4325 4.68675L16.4374 5.43673C16.4717 5.43651 16.4998 5.46417 16.5 5.49852L17.25 5.493L18 5.48748C17.9936 4.62523 17.2899 3.93117 16.4276 3.93677L16.4325 4.68675ZM17.25 5.493H16.5V6.75H17.25H18V5.493H17.25ZM11.4683 9.6195V8.8695H6.7035V9.6195V10.3695H11.4683V9.6195ZM14.7413 9.6195V10.3695H16.4318V9.6195V8.8695H14.7413V9.6195ZM16.4318 9.6195L16.4262 10.3695C16.8405 10.3726 17.2391 10.2109 17.5343 9.92008L17.0079 9.38585L16.4815 8.85161C16.4697 8.8632 16.4538 8.86964 16.4373 8.86952L16.4318 9.6195ZM17.0079 9.38585L17.5343 9.92008C17.8294 9.62926 17.9969 9.23311 18 8.81877L17.25 8.81325L16.5 8.80773C16.4999 8.82424 16.4932 8.84003 16.4815 8.85161L17.0079 9.38585ZM17.25 8.81325H18V6.75H17.25H16.5V8.81325H17.25ZM3.4305 9.6195V8.8695H1.56825V9.6195V10.3695H3.4305V9.6195ZM1.56825 9.6195L1.56269 8.86952C1.54618 8.86964 1.5303 8.8632 1.51854 8.85161L0.992139 9.38585L0.465741 9.92008C0.760886 10.2109 1.15947 10.3726 1.57381 10.3695L1.56825 9.6195ZM0.992139 9.38585L1.51854 8.85161C1.50678 8.84003 1.5001 8.82424 1.49998 8.80773L0.75 8.81325L2.03252e-05 8.81877C0.0030697 9.23311 0.170595 9.62926 0.465741 9.92008L0.992139 9.38585ZM0.75 8.81325H1.5V6.75H0.75H0V8.81325H0.75ZM7.536 0.75H6.786V4.68675H7.536H8.286V0.75H7.536ZM0.75 6.75V7.5H2.24475V6.75V6H0.75V6.75ZM17.25 6.75V6H15.6923V6.75V7.5H17.25V6.75Z" fill="#0C4CA6"/>
</g>
</svg>
