<svg width="42" height="43" viewBox="0 0 42 43" fill="none" xmlns="http://www.w3.org/2000/svg">
<g id="material-symbols:save-rounded">
<path id="Vector" d="M8.17418 39.1905C7.1133 39.1905 6.20543 38.813 5.45059 38.0582C4.69575 37.3034 4.31769 36.3949 4.31641 35.3327V8.32824C4.31641 7.26735 4.69447 6.35948 5.45059 5.60465C6.20672 4.84981 7.11458 4.47174 8.17418 4.47046H29.7295C30.2439 4.47046 30.7345 4.5669 31.2013 4.75979C31.668 4.95268 32.0776 5.22594 32.43 5.57957L37.9273 11.0769C38.2809 11.4305 38.5542 11.8407 38.7471 12.3075C38.94 12.7743 39.0364 13.2643 39.0364 13.7773V35.3327C39.0364 36.3936 38.659 37.3021 37.9041 38.0582C37.1493 38.8143 36.2408 39.1917 35.1786 39.1905H8.17418ZM21.6764 33.4038C23.2838 33.4038 24.6501 32.8412 25.7753 31.716C26.9005 30.5908 27.4631 29.2245 27.4631 27.6171C27.4631 26.0097 26.9005 24.6434 25.7753 23.5182C24.6501 22.3931 23.2838 21.8305 21.6764 21.8305C20.069 21.8305 18.7027 22.3931 17.5775 23.5182C16.4523 24.6434 15.8897 26.0097 15.8897 27.6171C15.8897 29.2245 16.4523 30.5908 17.5775 31.716C18.7027 32.8412 20.069 33.4038 21.6764 33.4038ZM12.032 17.9727H25.5342C26.0807 17.9727 26.5391 17.7875 26.9095 17.4172C27.2798 17.0468 27.4644 16.589 27.4631 16.0438V12.186C27.4631 11.6395 27.2779 11.1817 26.9076 10.8126C26.5372 10.4436 26.0794 10.2584 25.5342 10.2571H12.032C11.4854 10.2571 11.0277 10.4423 10.6586 10.8126C10.2895 11.183 10.1044 11.6408 10.1031 12.186V16.0438C10.1031 16.5903 10.2882 17.0487 10.6586 17.4191C11.0289 17.7894 11.4867 17.974 12.032 17.9727Z" fill="white"/>
</g>
</svg>
