<svg width="12" height="8" viewBox="0 0 12 8" fill="none" xmlns="http://www.w3.org/2000/svg">
<g id="Vector">
<path id="Vector-83" fill-rule="evenodd" clip-rule="evenodd" d="M3.06839 1H4.02314C4.29294 1.00655 4.50642 1.23044 4.50014 1.50025V6.49975C4.50642 6.76956 4.29294 6.99345 4.02314 7H3.06839C2.79858 6.99345 2.5851 6.76956 2.59139 6.49975V5.5H1.22714C0.957332 5.49345 0.743847 5.26956 0.750135 4.99975V3.00025C0.743847 2.73044 0.957332 2.50655 1.22714 2.5H2.59139V1.50025C2.5851 1.23044 2.79858 1.00655 3.06839 1Z" stroke="#0C4CA6" stroke-width="1.5" stroke-linecap="round" stroke-linejoin="round"/>
<path id="Vector-84" fill-rule="evenodd" clip-rule="evenodd" d="M8.93189 7H7.97714C7.70733 6.99345 7.49385 6.76956 7.50014 6.49975V1.50025C7.49385 1.23044 7.70733 1.00655 7.97714 1H8.93189C9.20169 1.00655 9.41517 1.23044 9.40889 1.50025V2.5H10.7724C10.9021 2.50295 11.0253 2.55732 11.1149 2.65114C11.2045 2.74497 11.2532 2.87055 11.2501 3.00025V4.99975C11.2564 5.26956 11.0429 5.49345 10.7731 5.5H9.40889V6.49975C9.41517 6.76956 9.20169 6.99345 8.93189 7Z" stroke="#0C4CA6" stroke-width="1.5" stroke-linecap="round" stroke-linejoin="round"/>
<path id="Vector-85" d="M1.84131 5.5C1.84131 5.91421 2.1771 6.25 2.59131 6.25C3.00552 6.25 3.34131 5.91421 3.34131 5.5H1.84131ZM3.34131 2.5C3.34131 2.08579 3.00552 1.75 2.59131 1.75C2.1771 1.75 1.84131 2.08579 1.84131 2.5H3.34131ZM10.1596 2.5C10.1596 2.08579 9.82377 1.75 9.40956 1.75C8.99534 1.75 8.65956 2.08579 8.65956 2.5H10.1596ZM8.65956 5.5C8.65956 5.91421 8.99534 6.25 9.40956 6.25C9.82377 6.25 10.1596 5.91421 10.1596 5.5H8.65956ZM4.50006 3.25C4.08585 3.25 3.75006 3.58579 3.75006 4C3.75006 4.41421 4.08585 4.75 4.50006 4.75V3.25ZM7.50006 4.75C7.91427 4.75 8.25006 4.41421 8.25006 4C8.25006 3.58579 7.91427 3.25 7.50006 3.25V4.75ZM2.59131 5.5H3.34131V2.5H2.59131H1.84131V5.5H2.59131ZM9.40956 2.5H8.65956V5.5H9.40956H10.1596V2.5H9.40956ZM4.50006 4V4.75H7.50006V4V3.25H4.50006V4Z" fill="#0C4CA6"/>
</g>
</svg>
