<svg width="16" height="14" viewBox="0 0 16 14" fill="none" xmlns="http://www.w3.org/2000/svg">
<g id="Vector">
<path id="Vector-3" fill-rule="evenodd" clip-rule="evenodd" d="M15 8.71371C15 11.0807 11.866 12.9997 8 12.9997C4.134 12.9997 1 11.0807 1 8.71371C1 6.34671 4.134 4.42871 8 4.42871C11.866 4.42871 15 6.34671 15 8.71371Z" stroke="#757575" stroke-width="1.5" stroke-linecap="round" stroke-linejoin="round"/>
<path id="Vector-4" fill-rule="evenodd" clip-rule="evenodd" d="M9.75017 8.71409C9.7648 9.425 9.34783 10.0741 8.69519 10.3563C8.04255 10.6386 7.28402 10.4979 6.77603 10.0003C6.26804 9.50279 6.11161 8.74734 6.38023 8.08898C6.64885 7.43062 7.28912 7.00025 8.00017 7.00009C8.45954 6.9953 8.90199 7.17319 9.23018 7.49463C9.55838 7.81607 9.74542 8.25473 9.75017 8.71409V8.71409Z" stroke="#757575" stroke-width="1.5" stroke-linecap="round" stroke-linejoin="round"/>
<path id="Vector-5" d="M7.25 4.429C7.25 4.84321 7.58579 5.179 8 5.179C8.41421 5.179 8.75 4.84321 8.75 4.429H7.25ZM8.75 1C8.75 0.585786 8.41421 0.25 8 0.25C7.58579 0.25 7.25 0.585786 7.25 1H8.75ZM14.7931 3.05471C14.9813 2.68571 14.8347 2.23403 14.4657 2.04586C14.0967 1.85769 13.645 2.00428 13.4569 2.37329L14.7931 3.05471ZM12.0199 5.19129C11.8317 5.5603 11.9783 6.01197 12.3473 6.20014C12.7163 6.38831 13.168 6.24172 13.3561 5.87271L12.0199 5.19129ZM2.54314 2.37329C2.35497 2.00428 1.90329 1.85769 1.53429 2.04586C1.16528 2.23403 1.01869 2.68571 1.20686 3.05471L2.54314 2.37329ZM2.64386 5.87271C2.83203 6.24172 3.28371 6.38831 3.65271 6.20014C4.02172 6.01197 4.16831 5.5603 3.98014 5.19129L2.64386 5.87271ZM8 4.429H8.75V1H8H7.25V4.429H8ZM14.125 2.714L13.4569 2.37329L12.0199 5.19129L12.688 5.532L13.3561 5.87271L14.7931 3.05471L14.125 2.714ZM1.875 2.714L1.20686 3.05471L2.64386 5.87271L3.312 5.532L3.98014 5.19129L2.54314 2.37329L1.875 2.714Z" fill="#757575"/>
</g>
</svg>
